<svg width="232" height="40" viewBox="0 0 232 40" fill="none" xmlns="http://www.w3.org/2000/svg">
<path d="M49.5781 28V12H59.8281V14.4297H52.4766V18.7734H59.125V21.2031H52.4766V28H49.5781ZM62.3438 28V16H65.1719V28H62.3438ZM63.7656 14.2969C63.3177 14.2969 62.9323 14.1484 62.6094 13.8516C62.2865 13.5495 62.125 13.1875 62.125 12.7656C62.125 12.3385 62.2865 11.9766 62.6094 11.6797C62.9323 11.3776 63.3177 11.2266 63.7656 11.2266C64.2188 11.2266 64.6042 11.3776 64.9219 11.6797C65.2448 11.9766 65.4063 12.3385 65.4063 12.7656C65.4063 13.1875 65.2448 13.5495 64.9219 13.8516C64.6042 14.1484 64.2188 14.2969 63.7656 14.2969ZM70.9082 20.9687V28H68.0801V16H70.7832V18.0391H70.9238C71.1999 17.3672 71.64 16.8333 72.2441 16.4375C72.8535 16.0417 73.6061 15.8438 74.502 15.8438C75.3301 15.8438 76.0514 16.0208 76.666 16.375C77.2858 16.7292 77.765 17.2422 78.1035 17.9141C78.4473 18.5859 78.6165 19.401 78.6113 20.3594V28H75.7832V20.7969C75.7832 19.9948 75.5749 19.3672 75.1582 18.9141C74.7467 18.4609 74.1764 18.2344 73.4473 18.2344C72.9525 18.2344 72.5124 18.3437 72.127 18.5625C71.7467 18.776 71.4473 19.0859 71.2285 19.4922C71.015 19.8984 70.9082 20.3906 70.9082 20.9687ZM84.9395 28.2422C84.179 28.2422 83.4941 28.1068 82.8848 27.8359C82.2806 27.5599 81.8014 27.1536 81.4473 26.6172C81.0983 26.0807 80.9238 25.4193 80.9238 24.6328C80.9238 23.9557 81.0488 23.3958 81.2988 22.9531C81.5488 22.5104 81.89 22.1562 82.3223 21.8906C82.7546 21.625 83.2415 21.4245 83.7832 21.2891C84.3301 21.1484 84.8952 21.0469 85.4785 20.9844C86.1816 20.9115 86.752 20.8464 87.1895 20.7891C87.627 20.7266 87.9447 20.6328 88.1426 20.5078C88.3457 20.3776 88.4473 20.1771 88.4473 19.9062V19.8594C88.4473 19.2708 88.2728 18.8151 87.9238 18.4922C87.5749 18.1693 87.0723 18.0078 86.416 18.0078C85.7233 18.0078 85.1738 18.1589 84.7676 18.4609C84.3665 18.763 84.0957 19.1198 83.9551 19.5312L81.3145 19.1562C81.5228 18.4271 81.8665 17.8177 82.3457 17.3281C82.8249 16.8333 83.4108 16.4635 84.1035 16.2187C84.7962 15.9688 85.5618 15.8438 86.4004 15.8438C86.9785 15.8438 87.554 15.9115 88.127 16.0469C88.6999 16.1823 89.2233 16.4062 89.6973 16.7187C90.1712 17.026 90.5514 17.4453 90.8379 17.9766C91.1296 18.5078 91.2754 19.1719 91.2754 19.9687V28H88.5566V26.3516H88.4629C88.291 26.6849 88.0488 26.9974 87.7363 27.2891C87.429 27.5755 87.041 27.8073 86.5723 27.9844C86.1087 28.1563 85.5645 28.2422 84.9395 28.2422ZM85.6738 26.1641C86.2415 26.1641 86.7337 26.0521 87.1504 25.8281C87.5671 25.599 87.8874 25.2969 88.1113 24.9219C88.3405 24.5469 88.4551 24.138 88.4551 23.6953V22.2812C88.3665 22.3542 88.2155 22.4219 88.002 22.4844C87.7936 22.5469 87.5592 22.6016 87.2988 22.6484C87.0384 22.6953 86.7806 22.737 86.5254 22.7734C86.2702 22.8099 86.0488 22.8411 85.8613 22.8672C85.4395 22.9245 85.0618 23.0182 84.7285 23.1484C84.3952 23.2786 84.1322 23.4609 83.9395 23.6953C83.7467 23.9245 83.6504 24.2214 83.6504 24.5859C83.6504 25.1068 83.8405 25.5 84.2207 25.7656C84.6009 26.0312 85.0853 26.1641 85.6738 26.1641ZM96.9473 20.9687V28H94.1191V16H96.8223V18.0391H96.9629C97.2389 17.3672 97.679 16.8333 98.2832 16.4375C98.8926 16.0417 99.6452 15.8438 100.541 15.8438C101.369 15.8438 102.09 16.0208 102.705 16.375C103.325 16.7292 103.804 17.2422 104.143 17.9141C104.486 18.5859 104.656 19.401 104.65 20.3594V28H101.822V20.7969C101.822 19.9948 101.614 19.3672 101.197 18.9141C100.786 18.4609 100.215 18.2344 99.4863 18.2344C98.9915 18.2344 98.5514 18.3437 98.166 18.5625C97.7858 18.776 97.4863 19.0859 97.2676 19.4922C97.054 19.8984 96.9473 20.3906 96.9473 20.9687ZM112.76 28.2344C111.562 28.2344 110.533 27.9714 109.674 27.4453C108.82 26.9193 108.161 26.1927 107.697 25.2656C107.239 24.3333 107.01 23.2604 107.01 22.0469C107.01 20.8281 107.244 19.7526 107.713 18.8203C108.182 17.8828 108.843 17.1536 109.697 16.6328C110.557 16.1068 111.572 15.8438 112.744 15.8438C113.718 15.8438 114.58 16.0234 115.33 16.3828C116.085 16.737 116.687 17.2396 117.135 17.8906C117.583 18.5365 117.838 19.2917 117.9 20.1562H115.197C115.088 19.5781 114.827 19.0964 114.416 18.7109C114.01 18.3203 113.465 18.125 112.783 18.125C112.205 18.125 111.697 18.2812 111.26 18.5937C110.822 18.901 110.481 19.3437 110.236 19.9219C109.997 20.5 109.877 21.1927 109.877 22C109.877 22.8177 109.997 23.5208 110.236 24.1094C110.476 24.6927 110.812 25.1432 111.244 25.4609C111.682 25.7734 112.195 25.9297 112.783 25.9297C113.2 25.9297 113.572 25.8516 113.9 25.6953C114.234 25.5339 114.512 25.3021 114.736 25C114.96 24.6979 115.114 24.3307 115.197 23.8984H117.9C117.833 24.7474 117.583 25.5 117.15 26.1562C116.718 26.8073 116.13 27.3177 115.385 27.6875C114.64 28.0521 113.765 28.2344 112.76 28.2344ZM125.535 28.2344C124.332 28.2344 123.293 27.9844 122.418 27.4844C121.548 26.9792 120.879 26.2656 120.41 25.3437C119.941 24.4167 119.707 23.3255 119.707 22.0703C119.707 20.8359 119.941 19.7526 120.41 18.8203C120.884 17.8828 121.546 17.1536 122.395 16.6328C123.243 16.1068 124.241 15.8438 125.387 15.8438C126.126 15.8438 126.824 15.9635 127.48 16.2031C128.142 16.4375 128.725 16.8021 129.23 17.2969C129.741 17.7917 130.142 18.4219 130.434 19.1875C130.725 19.9479 130.871 20.8542 130.871 21.9062V22.7734H121.035V20.8672H128.16C128.155 20.3255 128.038 19.8437 127.809 19.4219C127.579 18.9948 127.259 18.6589 126.848 18.4141C126.441 18.1693 125.967 18.0469 125.426 18.0469C124.848 18.0469 124.34 18.1875 123.902 18.4687C123.465 18.7448 123.124 19.1094 122.879 19.5625C122.639 20.0104 122.517 20.5026 122.512 21.0391V22.7031C122.512 23.401 122.639 24 122.895 24.5C123.15 24.9948 123.507 25.375 123.965 25.6406C124.423 25.901 124.96 26.0312 125.574 26.0312C125.986 26.0312 126.358 25.974 126.691 25.8594C127.025 25.7396 127.314 25.5651 127.559 25.3359C127.803 25.1068 127.988 24.8229 128.113 24.4844L130.754 24.7812C130.587 25.4792 130.27 26.0885 129.801 26.6094C129.337 27.125 128.743 27.526 128.02 27.8125C127.296 28.0937 126.467 28.2344 125.535 28.2344ZM138.846 12H142.393L147.143 23.5937H147.33L152.08 12H155.627V28H152.846V17.0078H152.697L148.275 27.9531H146.197L141.775 16.9844H141.627V28H138.846V12ZM162.111 28.2422C161.351 28.2422 160.666 28.1068 160.057 27.8359C159.452 27.5599 158.973 27.1536 158.619 26.6172C158.27 26.0807 158.096 25.4193 158.096 24.6328C158.096 23.9557 158.221 23.3958 158.471 22.9531C158.721 22.5104 159.062 22.1562 159.494 21.8906C159.926 21.625 160.413 21.4245 160.955 21.2891C161.502 21.1484 162.067 21.0469 162.65 20.9844C163.354 20.9115 163.924 20.8464 164.361 20.7891C164.799 20.7266 165.117 20.6328 165.314 20.5078C165.518 20.3776 165.619 20.1771 165.619 19.9062V19.8594C165.619 19.2708 165.445 18.8151 165.096 18.4922C164.747 18.1693 164.244 18.0078 163.588 18.0078C162.895 18.0078 162.346 18.1589 161.939 18.4609C161.538 18.763 161.268 19.1198 161.127 19.5312L158.486 19.1562C158.695 18.4271 159.038 17.8177 159.518 17.3281C159.997 16.8333 160.583 16.4635 161.275 16.2187C161.968 15.9688 162.734 15.8438 163.572 15.8438C164.15 15.8438 164.726 15.9115 165.299 16.0469C165.872 16.1823 166.395 16.4062 166.869 16.7187C167.343 17.026 167.723 17.4453 168.01 17.9766C168.301 18.5078 168.447 19.1719 168.447 19.9687V28H165.729V26.3516H165.635C165.463 26.6849 165.221 26.9974 164.908 27.2891C164.601 27.5755 164.213 27.8073 163.744 27.9844C163.281 28.1563 162.736 28.2422 162.111 28.2422ZM162.846 26.1641C163.413 26.1641 163.906 26.0521 164.322 25.8281C164.739 25.599 165.059 25.2969 165.283 24.9219C165.512 24.5469 165.627 24.138 165.627 23.6953V22.2812C165.538 22.3542 165.387 22.4219 165.174 22.4844C164.965 22.5469 164.731 22.6016 164.471 22.6484C164.21 22.6953 163.952 22.737 163.697 22.7734C163.442 22.8099 163.221 22.8411 163.033 22.8672C162.611 22.9245 162.234 23.0182 161.9 23.1484C161.567 23.2786 161.304 23.4609 161.111 23.6953C160.919 23.9245 160.822 24.2214 160.822 24.5859C160.822 25.1068 161.012 25.5 161.393 25.7656C161.773 26.0312 162.257 26.1641 162.846 26.1641ZM174.119 20.9687V28H171.291V16H173.994V18.0391H174.135C174.411 17.3672 174.851 16.8333 175.455 16.4375C176.064 16.0417 176.817 15.8438 177.713 15.8438C178.541 15.8438 179.262 16.0208 179.877 16.375C180.497 16.7292 180.976 17.2422 181.314 17.9141C181.658 18.5859 181.827 19.401 181.822 20.3594V28H178.994V20.7969C178.994 19.9948 178.786 19.3672 178.369 18.9141C177.958 18.4609 177.387 18.2344 176.658 18.2344C176.163 18.2344 175.723 18.3437 175.338 18.5625C174.958 18.776 174.658 19.0859 174.439 19.4922C174.226 19.8984 174.119 20.3906 174.119 20.9687ZM188.15 28.2422C187.39 28.2422 186.705 28.1068 186.096 27.8359C185.492 27.5599 185.012 27.1536 184.658 26.6172C184.309 26.0807 184.135 25.4193 184.135 24.6328C184.135 23.9557 184.26 23.3958 184.51 22.9531C184.76 22.5104 185.101 22.1562 185.533 21.8906C185.965 21.625 186.452 21.4245 186.994 21.2891C187.541 21.1484 188.106 21.0469 188.689 20.9844C189.393 20.9115 189.963 20.8464 190.4 20.7891C190.838 20.7266 191.156 20.6328 191.354 20.5078C191.557 20.3776 191.658 20.1771 191.658 19.9062V19.8594C191.658 19.2708 191.484 18.8151 191.135 18.4922C190.786 18.1693 190.283 18.0078 189.627 18.0078C188.934 18.0078 188.385 18.1589 187.979 18.4609C187.577 18.763 187.307 19.1198 187.166 19.5312L184.525 19.1562C184.734 18.4271 185.077 17.8177 185.557 17.3281C186.036 16.8333 186.622 16.4635 187.314 16.2187C188.007 15.9688 188.773 15.8438 189.611 15.8438C190.189 15.8438 190.765 15.9115 191.338 16.0469C191.911 16.1823 192.434 16.4062 192.908 16.7187C193.382 17.026 193.762 17.4453 194.049 17.9766C194.34 18.5078 194.486 19.1719 194.486 19.9687V28H191.768V26.3516H191.674C191.502 26.6849 191.26 26.9974 190.947 27.2891C190.64 27.5755 190.252 27.8073 189.783 27.9844C189.32 28.1563 188.775 28.2422 188.15 28.2422ZM188.885 26.1641C189.452 26.1641 189.945 26.0521 190.361 25.8281C190.778 25.599 191.098 25.2969 191.322 24.9219C191.551 24.5469 191.666 24.138 191.666 23.6953V22.2812C191.577 22.3542 191.426 22.4219 191.213 22.4844C191.005 22.5469 190.77 22.6016 190.51 22.6484C190.249 22.6953 189.992 22.737 189.736 22.7734C189.481 22.8099 189.26 22.8411 189.072 22.8672C188.65 22.9245 188.273 23.0182 187.939 23.1484C187.606 23.2786 187.343 23.4609 187.15 23.6953C186.958 23.9245 186.861 24.2214 186.861 24.5859C186.861 25.1068 187.051 25.5 187.432 25.7656C187.812 26.0312 188.296 26.1641 188.885 26.1641ZM202.549 32.75C201.533 32.75 200.661 32.612 199.932 32.3359C199.202 32.0651 198.617 31.7005 198.174 31.2422C197.731 30.7839 197.424 30.276 197.252 29.7188L199.799 29.1016C199.913 29.3359 200.08 29.5677 200.299 29.7969C200.518 30.0313 200.812 30.224 201.182 30.375C201.557 30.5313 202.028 30.6094 202.596 30.6094C203.398 30.6094 204.062 30.4141 204.588 30.0234C205.114 29.638 205.377 29.0026 205.377 28.1172V25.8437H205.236C205.09 26.1354 204.877 26.4349 204.596 26.7422C204.32 27.0495 203.952 27.3073 203.494 27.5156C203.041 27.724 202.471 27.8281 201.783 27.8281C200.861 27.8281 200.025 27.612 199.275 27.1797C198.531 26.7422 197.937 26.0911 197.494 25.2266C197.057 24.3568 196.838 23.2682 196.838 21.9609C196.838 20.6432 197.057 19.5312 197.494 18.625C197.937 17.7135 198.533 17.0234 199.283 16.5547C200.033 16.0807 200.869 15.8438 201.791 15.8438C202.494 15.8438 203.072 15.9635 203.525 16.2031C203.984 16.4375 204.348 16.7214 204.619 17.0547C204.89 17.3828 205.096 17.6927 205.236 17.9844H205.393V16H208.182V28.1953C208.182 29.2214 207.937 30.0703 207.447 30.7422C206.958 31.4141 206.288 31.9167 205.439 32.25C204.59 32.5833 203.627 32.75 202.549 32.75ZM202.572 25.6094C203.171 25.6094 203.682 25.4635 204.104 25.1719C204.525 24.8802 204.846 24.4609 205.064 23.9141C205.283 23.3672 205.393 22.7109 205.393 21.9453C205.393 21.1901 205.283 20.5286 205.064 19.9609C204.851 19.3932 204.533 18.9531 204.111 18.6406C203.695 18.3229 203.182 18.1641 202.572 18.1641C201.942 18.1641 201.416 18.3281 200.994 18.6562C200.572 18.9844 200.255 19.4349 200.041 20.0078C199.827 20.5755 199.721 21.2214 199.721 21.9453C199.721 22.6797 199.827 23.3229 200.041 23.875C200.26 24.4219 200.58 24.849 201.002 25.1562C201.429 25.4583 201.952 25.6094 202.572 25.6094ZM216.393 28.2344C215.189 28.2344 214.15 27.9844 213.275 27.4844C212.406 26.9792 211.736 26.2656 211.268 25.3437C210.799 24.4167 210.564 23.3255 210.564 22.0703C210.564 20.8359 210.799 19.7526 211.268 18.8203C211.742 17.8828 212.403 17.1536 213.252 16.6328C214.101 16.1068 215.098 15.8438 216.244 15.8438C216.984 15.8438 217.682 15.9635 218.338 16.2031C218.999 16.4375 219.583 16.8021 220.088 17.2969C220.598 17.7917 220.999 18.4219 221.291 19.1875C221.583 19.9479 221.729 20.8542 221.729 21.9062V22.7734H211.893V20.8672H219.018C219.012 20.3255 218.895 19.8437 218.666 19.4219C218.437 18.9948 218.117 18.6589 217.705 18.4141C217.299 18.1693 216.825 18.0469 216.283 18.0469C215.705 18.0469 215.197 18.1875 214.76 18.4687C214.322 18.7448 213.981 19.1094 213.736 19.5625C213.497 20.0104 213.374 20.5026 213.369 21.0391V22.7031C213.369 23.401 213.497 24 213.752 24.5C214.007 24.9948 214.364 25.375 214.822 25.6406C215.281 25.901 215.817 26.0312 216.432 26.0312C216.843 26.0312 217.215 25.974 217.549 25.8594C217.882 25.7396 218.171 25.5651 218.416 25.3359C218.661 25.1068 218.846 24.8229 218.971 24.4844L221.611 24.7812C221.445 25.4792 221.127 26.0885 220.658 26.6094C220.195 27.125 219.601 27.526 218.877 27.8125C218.153 28.0937 217.325 28.2344 216.393 28.2344ZM224.121 28V16H226.863V18H226.988C227.207 17.3073 227.582 16.7734 228.113 16.3984C228.65 16.0182 229.262 15.8281 229.949 15.8281C230.105 15.8281 230.28 15.8359 230.473 15.8516C230.671 15.862 230.835 15.8802 230.965 15.9062V18.5078C230.845 18.4661 230.655 18.4297 230.395 18.3984C230.139 18.362 229.892 18.3437 229.652 18.3437C229.137 18.3437 228.673 18.4557 228.262 18.6797C227.855 18.8984 227.535 19.2031 227.301 19.5937C227.066 19.9844 226.949 20.4349 226.949 20.9453V28H224.121Z" fill="#F05454"/>
<path d="M23.5758 15.6554C23.9377 16.0725 24.5693 16.1173 24.9865 15.7553C25.4036 15.3933 25.4483 14.7618 25.0864 14.3446L23.5758 15.6554ZM16.4242 24.3446C16.0623 23.9275 15.4307 23.8827 15.0136 24.2447C14.5964 24.6067 14.5517 25.2382 14.9136 25.6554L16.4242 24.3446ZM21 11.6667C21 11.1144 20.5523 10.6667 20 10.6667C19.4477 10.6667 19 11.1144 19 11.6667H21ZM19 28.3333C19 28.8856 19.4477 29.3333 20 29.3333C20.5523 29.3333 21 28.8856 21 28.3334L19 28.3333ZM34 20C34 27.732 27.732 34 20 34V36C28.8366 36 36 28.8366 36 20H34ZM20 34C12.268 34 6 27.732 6 20H4C4 28.8366 11.1634 36 20 36V34ZM6 20C6 12.268 12.268 6 20 6V4C11.1634 4 4 11.1634 4 20H6ZM20 6C27.732 6 34 12.268 34 20H36C36 11.1634 28.8366 4 20 4V6ZM20 19C18.7892 19 17.7382 18.671 17.0192 18.1916C16.2931 17.7076 16 17.1488 16 16.6667H14C14 18.0255 14.8262 19.1333 15.9098 19.8557C17.0004 20.5828 18.4494 21 20 21V19ZM16 16.6667C16 16.1846 16.2931 15.6257 17.0192 15.1417C17.7382 14.6623 18.7892 14.3333 20 14.3333V12.3333C18.4494 12.3333 17.0004 12.7505 15.9098 13.4776C14.8262 14.2 14 15.3078 14 16.6667H16ZM20 14.3333C21.6441 14.3333 22.9497 14.9338 23.5758 15.6554L25.0864 14.3446C23.9835 13.0736 22.0574 12.3333 20 12.3333V14.3333ZM20 21C21.2108 21 22.2618 21.329 22.9809 21.8084C23.7069 22.2924 24 22.8512 24 23.3333H26C26 21.9745 25.1739 20.8667 24.0902 20.1443C22.9996 19.4172 21.5506 19 20 19V21ZM19 11.6667V13.3333H21V11.6667H19ZM19 26.6666L19 28.3333L21 28.3334L21 26.6667L19 26.6666ZM20 25.6667C18.356 25.6667 17.0504 25.0662 16.4242 24.3446L14.9136 25.6554C16.0166 26.9264 17.9427 27.6667 20 27.6667L20 25.6667ZM24 23.3333C24 23.8154 23.7069 24.3743 22.9809 24.8583C22.2618 25.3377 21.2109 25.6667 20 25.6667V27.6667C21.5506 27.6667 22.9997 27.2495 24.0903 26.5224C25.1739 25.8 26 24.6922 26 23.3333H24ZM19 13.3333L19 26.6667L21 26.6667L21 13.3333L19 13.3333Z" fill="#F05454"/>
</svg>
