<svg width="220" height="28" viewBox="0 0 220 28" fill="none" xmlns="http://www.w3.org/2000/svg">
<path d="M30.614 22V5.63636H41.0969V8.12127H33.5783V12.5637H40.3778V15.0487H33.5783V22H30.614ZM43.6697 22V9.72727H46.5621V22H43.6697ZM45.1239 7.98544C44.6658 7.98544 44.2717 7.83363 43.9414 7.53001C43.6112 7.22106 43.446 6.85085 43.446 6.41939C43.446 5.9826 43.6112 5.61239 43.9414 5.30877C44.2717 4.99982 44.6658 4.84535 45.1239 4.84535C45.5874 4.84535 45.9815 4.99982 46.3065 5.30877C46.6367 5.61239 46.8018 5.9826 46.8018 6.41939C46.8018 6.85085 46.6367 7.22106 46.3065 7.53001C45.9815 7.83363 45.5874 7.98544 45.1239 7.98544ZM52.4288 14.8089V22H49.5364V9.72727H52.301V11.8127H52.4448C52.7271 11.1255 53.1772 10.5795 53.7951 10.1747C54.4184 9.76989 55.1881 9.56747 56.1043 9.56747C56.9512 9.56747 57.689 9.74858 58.3175 10.1108C58.9514 10.473 59.4415 10.9977 59.7877 11.6848C60.1392 12.372 60.3124 13.2056 60.307 14.1857V22H57.4146V14.6332C57.4146 13.8129 57.2016 13.171 56.7754 12.7076C56.3546 12.2441 55.7714 12.0124 55.0256 12.0124C54.5196 12.0124 54.0695 12.1243 53.6753 12.348C53.2864 12.5664 52.9802 12.8833 52.7564 13.2988C52.538 13.7143 52.4288 14.2177 52.4288 14.8089ZM66.779 22.2477C66.0013 22.2477 65.3008 22.1092 64.6776 21.8322C64.0597 21.5499 63.5696 21.1344 63.2074 20.5858C62.8505 20.0371 62.6721 19.3606 62.6721 18.5563C62.6721 17.8638 62.7999 17.2912 63.0556 16.8384C63.3113 16.3857 63.6602 16.0234 64.1023 15.7518C64.5444 15.4801 65.0425 15.275 65.5965 15.1365C66.1558 14.9927 66.7337 14.8888 67.3303 14.8249C68.0494 14.7504 68.6327 14.6838 69.0801 14.6252C69.5276 14.5613 69.8525 14.4654 70.0549 14.3375C70.2627 14.2044 70.3665 13.9993 70.3665 13.7223V13.6744C70.3665 13.0724 70.1881 12.6064 69.8312 12.2761C69.4743 11.9458 68.9603 11.7807 68.2891 11.7807C67.5807 11.7807 67.0187 11.9352 66.6032 12.2441C66.193 12.5531 65.9161 12.918 65.7722 13.3388L63.0716 12.9553C63.2847 12.2095 63.6362 11.5863 64.1263 11.0856C64.6163 10.5795 65.2156 10.2013 65.9241 9.95099C66.6325 9.69531 67.4155 9.56747 68.2731 9.56747C68.8644 9.56747 69.453 9.63672 70.0389 9.77521C70.6249 9.91371 71.1602 10.1428 71.6449 10.4624C72.1297 10.7766 72.5185 11.2054 72.8115 11.7488C73.1098 12.2921 73.2589 12.9712 73.2589 13.7862V22H70.4784V20.3141H70.3825C70.2067 20.655 69.959 20.9746 69.6394 21.2729C69.3252 21.5659 68.9283 21.8029 68.4489 21.984C67.9748 22.1598 67.4182 22.2477 66.779 22.2477ZM67.5301 20.1223C68.1107 20.1223 68.614 20.0078 69.0402 19.7788C69.4663 19.5444 69.7939 19.2354 70.0229 18.8519C70.2573 18.4684 70.3745 18.0502 70.3745 17.5975V16.1513C70.284 16.2259 70.1295 16.2951 69.9111 16.359C69.698 16.4229 69.4583 16.4789 69.192 16.5268C68.9256 16.5748 68.662 16.6174 68.401 16.6547C68.14 16.6919 67.9136 16.7239 67.7218 16.7505C67.2903 16.8091 66.9042 16.905 66.5633 17.0382C66.2223 17.1713 65.9533 17.3578 65.7563 17.5975C65.5592 17.8319 65.4606 18.1355 65.4606 18.5083C65.4606 19.041 65.6551 19.4432 66.0439 19.7148C66.4328 19.9865 66.9281 20.1223 67.5301 20.1223ZM79.0597 14.8089V22H76.1673V9.72727H78.9319V11.8127H79.0757C79.358 11.1255 79.8081 10.5795 80.426 10.1747C81.0492 9.76989 81.8189 9.56747 82.7351 9.56747C83.5821 9.56747 84.3198 9.74858 84.9484 10.1108C85.5823 10.473 86.0723 10.9977 86.4185 11.6848C86.7701 12.372 86.9432 13.2056 86.9379 14.1857V22H84.0455V14.6332C84.0455 13.8129 83.8324 13.171 83.4063 12.7076C82.9855 12.2441 82.4022 12.0124 81.6565 12.0124C81.1504 12.0124 80.7003 12.1243 80.3062 12.348C79.9173 12.5664 79.611 12.8833 79.3873 13.2988C79.1689 13.7143 79.0597 14.2177 79.0597 14.8089ZM95.2316 22.2397C94.0064 22.2397 92.9544 21.9707 92.0755 21.4327C91.2019 20.8947 90.5281 20.1516 90.054 19.2035C89.5853 18.25 89.3509 17.1527 89.3509 15.9116C89.3509 14.6651 89.5906 13.5652 90.07 12.6117C90.5494 11.6529 91.2259 10.9071 92.0995 10.3745C92.9784 9.83647 94.0171 9.56747 95.2156 9.56747C96.2117 9.56747 97.0933 9.75124 97.8603 10.1188C98.6327 10.481 99.2479 10.995 99.706 11.6609C100.164 12.3214 100.425 13.0937 100.489 13.978H97.7245C97.6126 13.3867 97.3463 12.894 96.9255 12.4998C96.51 12.1003 95.9533 11.9006 95.2555 11.9006C94.6643 11.9006 94.1449 12.0604 93.6975 12.38C93.25 12.6942 92.9011 13.147 92.6508 13.7383C92.4058 14.3295 92.2832 15.038 92.2832 15.8636C92.2832 16.6999 92.4058 17.419 92.6508 18.021C92.8958 18.6175 93.2394 19.0783 93.6815 19.4032C94.129 19.7228 94.6536 19.8826 95.2555 19.8826C95.6817 19.8826 96.0625 19.8027 96.3981 19.6429C96.739 19.4778 97.024 19.2408 97.2531 18.9318C97.4821 18.6229 97.6392 18.2473 97.7245 17.8052H100.489C100.42 18.6735 100.164 19.4432 99.722 20.1143C99.2799 20.7802 98.678 21.3022 97.9162 21.6804C97.1545 22.0533 96.2596 22.2397 95.2316 22.2397ZM108.297 22.2397C107.067 22.2397 106.004 21.984 105.109 21.4727C104.22 20.956 103.535 20.2262 103.056 19.2834C102.576 18.3352 102.337 17.2193 102.337 15.9355C102.337 14.6731 102.576 13.5652 103.056 12.6117C103.541 11.6529 104.217 10.9071 105.085 10.3745C105.954 9.83647 106.974 9.56747 108.146 9.56747C108.902 9.56747 109.616 9.68999 110.287 9.93501C110.963 10.1747 111.56 10.5476 112.077 11.0536C112.599 11.5597 113.009 12.2042 113.307 12.9872C113.605 13.7649 113.755 14.6918 113.755 15.7678V16.6547H103.695V14.7051H110.982C110.977 14.1511 110.857 13.6584 110.622 13.2269C110.388 12.7901 110.06 12.4466 109.64 12.1962C109.224 11.9458 108.739 11.8207 108.185 11.8207C107.594 11.8207 107.075 11.9645 106.627 12.2521C106.18 12.5344 105.831 12.9073 105.581 13.3707C105.336 13.8288 105.21 14.3322 105.205 14.8809V16.5827C105.205 17.2965 105.336 17.9091 105.597 18.4205C105.858 18.9265 106.223 19.3153 106.691 19.587C107.16 19.8533 107.709 19.9865 108.337 19.9865C108.758 19.9865 109.139 19.9279 109.48 19.8107C109.821 19.6882 110.116 19.5098 110.367 19.2754C110.617 19.041 110.806 18.7507 110.934 18.4045L113.635 18.7081C113.464 19.4219 113.139 20.0451 112.66 20.5778C112.186 21.1051 111.579 21.5153 110.838 21.8082C110.098 22.0959 109.251 22.2397 108.297 22.2397ZM121.91 5.63636H125.538L130.396 17.4936H130.588L135.446 5.63636H139.073V22H136.229V10.758H136.077L131.554 21.9521H129.429L124.907 10.734H124.755V22H121.91V5.63636ZM145.705 22.2477C144.927 22.2477 144.227 22.1092 143.603 21.8322C142.985 21.5499 142.495 21.1344 142.133 20.5858C141.776 20.0371 141.598 19.3606 141.598 18.5563C141.598 17.8638 141.726 17.2912 141.981 16.8384C142.237 16.3857 142.586 16.0234 143.028 15.7518C143.47 15.4801 143.968 15.275 144.522 15.1365C145.082 14.9927 145.659 14.8888 146.256 14.8249C146.975 14.7504 147.558 14.6838 148.006 14.6252C148.453 14.5613 148.778 14.4654 148.981 14.3375C149.188 14.2044 149.292 13.9993 149.292 13.7223V13.6744C149.292 13.0724 149.114 12.6064 148.757 12.2761C148.4 11.9458 147.886 11.7807 147.215 11.7807C146.506 11.7807 145.944 11.9352 145.529 12.2441C145.119 12.5531 144.842 12.918 144.698 13.3388L141.997 12.9553C142.21 12.2095 142.562 11.5863 143.052 11.0856C143.542 10.5795 144.141 10.2013 144.85 9.95099C145.558 9.69531 146.341 9.56747 147.199 9.56747C147.79 9.56747 148.379 9.63672 148.965 9.77521C149.551 9.91371 150.086 10.1428 150.571 10.4624C151.055 10.7766 151.444 11.2054 151.737 11.7488C152.036 12.2921 152.185 12.9712 152.185 13.7862V22H149.404V20.3141H149.308C149.133 20.655 148.885 20.9746 148.565 21.2729C148.251 21.5659 147.854 21.8029 147.375 21.984C146.901 22.1598 146.344 22.2477 145.705 22.2477ZM146.456 20.1223C147.036 20.1223 147.54 20.0078 147.966 19.7788C148.392 19.5444 148.72 19.2354 148.949 18.8519C149.183 18.4684 149.3 18.0502 149.3 17.5975V16.1513C149.21 16.2259 149.055 16.2951 148.837 16.359C148.624 16.4229 148.384 16.4789 148.118 16.5268C147.851 16.5748 147.588 16.6174 147.327 16.6547C147.066 16.6919 146.839 16.7239 146.648 16.7505C146.216 16.8091 145.83 16.905 145.489 17.0382C145.148 17.1713 144.879 17.3578 144.682 17.5975C144.485 17.8319 144.386 18.1355 144.386 18.5083C144.386 19.041 144.581 19.4432 144.97 19.7148C145.359 19.9865 145.854 20.1223 146.456 20.1223ZM157.985 14.8089V22H155.093V9.72727H157.858V11.8127H158.001C158.284 11.1255 158.734 10.5795 159.352 10.1747C159.975 9.76989 160.745 9.56747 161.661 9.56747C162.508 9.56747 163.246 9.74858 163.874 10.1108C164.508 10.473 164.998 10.9977 165.344 11.6848C165.696 12.372 165.869 13.2056 165.864 14.1857V22H162.971V14.6332C162.971 13.8129 162.758 13.171 162.332 12.7076C161.911 12.2441 161.328 12.0124 160.582 12.0124C160.076 12.0124 159.626 12.1243 159.232 12.348C158.843 12.5664 158.537 12.8833 158.313 13.2988C158.095 13.7143 157.985 14.2177 157.985 14.8089ZM172.336 22.2477C171.558 22.2477 170.857 22.1092 170.234 21.8322C169.616 21.5499 169.126 21.1344 168.764 20.5858C168.407 20.0371 168.229 19.3606 168.229 18.5563C168.229 17.8638 168.357 17.2912 168.612 16.8384C168.868 16.3857 169.217 16.0234 169.659 15.7518C170.101 15.4801 170.599 15.275 171.153 15.1365C171.712 14.9927 172.29 14.8888 172.887 14.8249C173.606 14.7504 174.189 14.6838 174.637 14.6252C175.084 14.5613 175.409 14.4654 175.612 14.3375C175.819 14.2044 175.923 13.9993 175.923 13.7223V13.6744C175.923 13.0724 175.745 12.6064 175.388 12.2761C175.031 11.9458 174.517 11.7807 173.846 11.7807C173.137 11.7807 172.575 11.9352 172.16 12.2441C171.75 12.5531 171.473 12.918 171.329 13.3388L168.628 12.9553C168.841 12.2095 169.193 11.5863 169.683 11.0856C170.173 10.5795 170.772 10.2013 171.481 9.95099C172.189 9.69531 172.972 9.56747 173.83 9.56747C174.421 9.56747 175.01 9.63672 175.596 9.77521C176.182 9.91371 176.717 10.1428 177.202 10.4624C177.686 10.7766 178.075 11.2054 178.368 11.7488C178.666 12.2921 178.816 12.9712 178.816 13.7862V22H176.035V20.3141H175.939C175.763 20.655 175.516 20.9746 175.196 21.2729C174.882 21.5659 174.485 21.8029 174.006 21.984C173.531 22.1598 172.975 22.2477 172.336 22.2477ZM173.087 20.1223C173.667 20.1223 174.171 20.0078 174.597 19.7788C175.023 19.5444 175.351 19.2354 175.58 18.8519C175.814 18.4684 175.931 18.0502 175.931 17.5975V16.1513C175.841 16.2259 175.686 16.2951 175.468 16.359C175.255 16.4229 175.015 16.4789 174.749 16.5268C174.482 16.5748 174.219 16.6174 173.958 16.6547C173.697 16.6919 173.47 16.7239 173.278 16.7505C172.847 16.8091 172.461 16.905 172.12 17.0382C171.779 17.1713 171.51 17.3578 171.313 17.5975C171.116 17.8319 171.017 18.1355 171.017 18.5083C171.017 19.041 171.212 19.4432 171.601 19.7148C171.989 19.9865 172.485 20.1223 173.087 20.1223ZM187.061 26.858C186.023 26.858 185.13 26.7168 184.385 26.4345C183.639 26.1575 183.04 25.7846 182.587 25.3159C182.134 24.8471 181.82 24.3278 181.644 23.7578L184.249 23.1266C184.366 23.3663 184.536 23.6033 184.76 23.8377C184.984 24.0774 185.285 24.2745 185.663 24.429C186.047 24.5888 186.529 24.6687 187.109 24.6687C187.93 24.6687 188.609 24.4689 189.147 24.0694C189.685 23.6752 189.954 23.0254 189.954 22.1199V19.7947H189.81C189.661 20.093 189.442 20.3993 189.155 20.7136C188.872 21.0279 188.497 21.2915 188.028 21.5046C187.565 21.7177 186.981 21.8242 186.278 21.8242C185.335 21.8242 184.481 21.6032 183.713 21.161C182.952 20.7136 182.345 20.0478 181.892 19.1635C181.444 18.274 181.221 17.1607 181.221 15.8237C181.221 14.476 181.444 13.3388 181.892 12.4119C182.345 11.4798 182.954 10.774 183.721 10.2946C184.489 9.80984 185.343 9.56747 186.286 9.56747C187.005 9.56747 187.597 9.68999 188.06 9.93501C188.529 10.1747 188.902 10.465 189.179 10.8059C189.456 11.1415 189.666 11.4585 189.81 11.7567H189.97V9.72727H192.822V22.1998C192.822 23.2491 192.572 24.1174 192.071 24.8045C191.57 25.4917 190.886 26.0057 190.018 26.3466C189.149 26.6875 188.164 26.858 187.061 26.858ZM187.085 19.555C187.698 19.555 188.22 19.4059 188.651 19.1076C189.083 18.8093 189.41 18.3805 189.634 17.8212C189.858 17.2619 189.97 16.5907 189.97 15.8077C189.97 15.0353 189.858 14.3588 189.634 13.7782C189.416 13.1976 189.091 12.7475 188.659 12.4279C188.233 12.103 187.708 11.9405 187.085 11.9405C186.441 11.9405 185.903 12.1083 185.471 12.4439C185.04 12.7795 184.715 13.2402 184.496 13.8262C184.278 14.4068 184.169 15.0673 184.169 15.8077C184.169 16.5588 184.278 17.2166 184.496 17.7812C184.72 18.3406 185.048 18.7773 185.479 19.0916C185.916 19.4006 186.451 19.555 187.085 19.555ZM201.22 22.2397C199.989 22.2397 198.927 21.984 198.032 21.4727C197.142 20.956 196.458 20.2262 195.978 19.2834C195.499 18.3352 195.259 17.2193 195.259 15.9355C195.259 14.6731 195.499 13.5652 195.978 12.6117C196.463 11.6529 197.139 10.9071 198.008 10.3745C198.876 9.83647 199.896 9.56747 201.068 9.56747C201.824 9.56747 202.538 9.68999 203.209 9.93501C203.886 10.1747 204.482 10.5476 204.999 11.0536C205.521 11.5597 205.931 12.2042 206.229 12.9872C206.528 13.7649 206.677 14.6918 206.677 15.7678V16.6547H196.617V14.7051H203.904C203.899 14.1511 203.779 13.6584 203.545 13.2269C203.31 12.7901 202.983 12.4466 202.562 12.1962C202.147 11.9458 201.662 11.8207 201.108 11.8207C200.517 11.8207 199.997 11.9645 199.55 12.2521C199.102 12.5344 198.753 12.9073 198.503 13.3707C198.258 13.8288 198.133 14.3322 198.128 14.8809V16.5827C198.128 17.2965 198.258 17.9091 198.519 18.4205C198.78 18.9265 199.145 19.3153 199.614 19.587C200.082 19.8533 200.631 19.9865 201.26 19.9865C201.68 19.9865 202.061 19.9279 202.402 19.8107C202.743 19.6882 203.039 19.5098 203.289 19.2754C203.539 19.041 203.729 18.7507 203.856 18.4045L206.557 18.7081C206.387 19.4219 206.062 20.0451 205.582 20.5778C205.108 21.1051 204.501 21.5153 203.761 21.8082C203.02 22.0959 202.173 22.2397 201.22 22.2397ZM209.124 22V9.72727H211.928V11.7727H212.056C212.28 11.0643 212.663 10.5183 213.207 10.1348C213.755 9.74592 214.381 9.55149 215.084 9.55149C215.244 9.55149 215.423 9.55948 215.62 9.57546C215.822 9.58611 215.99 9.60476 216.123 9.63139V12.2921C216.001 12.2495 215.806 12.2122 215.54 12.1802C215.279 12.1429 215.026 12.1243 214.781 12.1243C214.253 12.1243 213.779 12.2388 213.359 12.4679C212.943 12.6916 212.616 13.0032 212.376 13.4027C212.136 13.8022 212.016 14.263 212.016 14.785V22H209.124Z" fill="#F05454"/>
<g clip-path="url(#clip0_1503_495)">
<mask id="path-2-inside-1_1503_495" fill="white">
<path d="M24 14C24 20.6274 18.6274 26 12 26C5.37258 26 0 20.6274 0 14C0 7.37258 5.37258 2 12 2C18.6274 2 24 7.37258 24 14Z"/>
</mask>
<path d="M14.7096 10.6554C15.0715 11.0725 15.7031 11.1173 16.1202 10.7553C16.5374 10.3933 16.5821 9.76176 16.2202 9.34462L14.7096 10.6554ZM9.29046 17.3446C8.9285 16.9275 8.29692 16.8827 7.87978 17.2447C7.46264 17.6067 7.4179 18.2382 7.77985 18.6554L9.29046 17.3446ZM13 7.33333C13 6.78105 12.5523 6.33333 12 6.33333C11.4477 6.33333 11 6.78105 11 7.33333H13ZM11 20.6666C11 21.2189 11.4477 21.6667 12 21.6667C12.5523 21.6667 13 21.219 13 20.6667L11 20.6666ZM12 13C11.0653 13 10.2644 12.7456 9.72627 12.3869C9.1812 12.0235 9 11.6313 9 11.3333H7C7 12.5081 7.71423 13.4492 8.61687 14.051C9.5265 14.6574 10.7255 15 12 15V13ZM9 11.3333C9 11.0353 9.1812 10.6431 9.72627 10.2798C10.2644 9.92104 11.0653 9.66667 12 9.66667V7.66667C10.7255 7.66667 9.5265 8.00924 8.61687 8.61566C7.71423 9.21743 7 10.1586 7 11.3333H9ZM12 9.66667C13.2739 9.66667 14.2563 10.133 14.7096 10.6554L16.2202 9.34462C15.2902 8.27282 13.6872 7.66667 12 7.66667V9.66667ZM12 15C12.9347 15 13.7357 15.2544 14.2737 15.6131C14.8188 15.9765 15 16.3687 15 16.6667H17C17 15.4919 16.2858 14.5508 15.3831 13.949C14.4735 13.3426 13.2745 13 12 13V15ZM11 7.33333V8.66667H13V7.33333H11ZM11 19.3333L11 20.6666L13 20.6667L13 19.3334L11 19.3333ZM12 18.3333C10.7261 18.3333 9.74368 17.8669 9.29046 17.3446L7.77985 18.6554C8.70986 19.7272 10.3128 20.3333 12 20.3333L12 18.3333ZM15 16.6667C15 16.9647 14.8188 17.3569 14.2738 17.7202C13.7357 18.079 12.9347 18.3333 12 18.3333V20.3333C13.2745 20.3333 14.4735 19.9908 15.3832 19.3843C16.2858 18.7826 17 17.8414 17 16.6667H15ZM11 8.66667L11 19.3333L13 19.3333L13 8.66666L11 8.66667ZM22 14C22 19.5228 17.5228 24 12 24V28C19.732 28 26 21.732 26 14H22ZM12 24C6.47715 24 2 19.5228 2 14H-2C-2 21.732 4.26801 28 12 28V24ZM2 14C2 8.47715 6.47715 4 12 4V0C4.26801 0 -2 6.26801 -2 14H2ZM12 4C17.5228 4 22 8.47715 22 14H26C26 6.26801 19.732 0 12 0V4Z" fill="#F05454" mask="url(#path-2-inside-1_1503_495)"/>
</g>
<defs>
<clipPath id="clip0_1503_495">
<rect width="24" height="24" fill="white" transform="translate(0 2)"/>
</clipPath>
</defs>
</svg>
