<svg width="32" height="32" viewBox="0 0 32 32" fill="none" xmlns="http://www.w3.org/2000/svg">
<rect width="32" height="32" rx="16" fill="#4EC0B5" fill-opacity="0.2"/>
<path d="M25 21H7V20.3333H25V21Z" fill="#4EC0B5"/>
<path d="M25 22.3333H7V21.6667H25V22.3333Z" fill="#4EC0B5"/>
<path d="M25 19.6666H7V19H25V19.6666Z" fill="#4EC0B5"/>
<path d="M25 18.3333H7V9H25L25 18.3333ZM7.66667 17.6666H24.3333V9.66667H7.66667V17.6666Z" fill="#4EC0B5"/>
<path d="M22.3333 17H9.99991V16.6666C9.99991 16.1471 9.83845 15.6666 8.66657 15.6666H8.33325V11.6666H8.66657C9.83845 11.6666 9.99991 11.1862 9.99991 10.6667V10.3333H22.3333V10.6667C22.3333 11.4931 22.877 11.6666 23.3332 11.6666H23.6666V15.6666H23.3332C22.877 15.6666 22.3333 15.8401 22.3333 16.6666V17ZM10.6423 16.3333H21.6897C21.8103 15.5062 22.3843 15.123 22.9999 15.0257V12.3076C22.3843 12.2103 21.8103 11.8271 21.6897 11H10.6423C10.5486 11.6129 10.1558 12.2226 8.99992 12.32V15.0133C10.1558 15.1106 10.5486 15.7204 10.6423 16.3333Z" fill="#4EC0B5"/>
<path d="M16 15.6667C14.8971 15.6667 14 14.7695 14 13.6667C14 12.5638 14.8971 11.6667 16 11.6667C17.1029 11.6667 18 12.5638 18 13.6667C18 14.7695 17.1029 15.6667 16 15.6667ZM16 12.3334C15.2648 12.3334 14.6667 12.9317 14.6667 13.6667C14.6667 14.4017 15.2648 15 16 15C16.7352 15 17.3333 14.4017 17.3333 13.6667C17.3333 12.9317 16.7352 12.3334 16 12.3334Z" fill="#4EC0B5"/>
<path d="M12.1667 14H11.5V13.3333H12.1667V14Z" fill="#4EC0B5"/>
<path d="M20.4999 14H19.8333V13.3333H20.4999V14Z" fill="#4EC0B5"/>
</svg>
