<svg width="32" height="32" viewBox="0 0 32 32" fill="none" xmlns="http://www.w3.org/2000/svg">
<rect width="32" height="32" rx="16" fill="#7DD3FC" fill-opacity="0.2"/>
<mask id="mask0_1595_687" style="mask-type:luminance" maskUnits="userSpaceOnUse" x="7" y="9" width="18" height="15">
<path d="M25 9H7V23.4H25V9Z" fill="white"/>
</mask>
<g mask="url(#mask0_1595_687)">
<path d="M25 13.5788C25 13.7733 24.9355 13.9691 24.8028 14.1328L23.3977 15.8662C23.2199 16.0854 22.9584 16.1994 22.6943 16.1994C22.4971 16.1994 22.2985 16.1358 22.1326 16.0049L20.5 14.7178V22.05C20.5 22.7956 19.8956 23.4 19.15 23.4H12.85C12.1047 23.4 11.5 22.7953 11.5 22.05V14.7178L9.84345 16.0059C9.70141 16.1353 9.50285 16.1747 9.3057 16.1747C9.04166 16.1747 8.78004 16.0606 8.60229 15.8414L7.19722 14.1328C7.06447 13.9697 7 13.7728 7 13.5788C7 13.3183 7.11562 13.0601 7.33778 12.8846L11.1347 9.88651C11.4944 9.60442 11.9416 9.45001 12.3747 9.45001H13.345C13.5616 10.7258 14.6641 11.7 16 11.7C17.3359 11.7 18.4393 10.7258 18.6547 9.45001H19.5997C20.0596 9.45001 20.5059 9.60442 20.8651 9.88792L24.6619 12.886C24.8847 13.0613 25 13.32 25 13.5788Z" fill="#7DD3FC"/>
</g>
</svg>
