<svg width="32" height="32" viewBox="0 0 32 32" fill="none" xmlns="http://www.w3.org/2000/svg">
<rect width="32" height="32" rx="16" fill="#FFCA55" fill-opacity="0.2"/>
<path d="M23.3813 20.6801C22.8075 21.3836 21.993 21.8834 21.1784 22.3462C20.5861 22.6794 19.9937 23.0126 19.4013 23.3273C18.5128 23.7901 17.5872 24.2529 16.569 24.4195C15.3473 24.6046 14.107 24.3454 12.9778 23.8271L19.3458 8.48096C19.3643 8.49947 19.3828 8.49947 19.4013 8.51798C21.3821 9.64719 23.3628 11.0541 24.0292 13.0718C24.2699 13.7938 24.3254 14.5713 24.381 15.3303C24.5291 17.1814 24.6031 19.1992 23.3813 20.6801Z" fill="#D8A339"/>
<path d="M19.3641 8.49946L12.9961 23.8456C12.5703 23.642 12.1446 23.4199 11.7558 23.1607C9.73806 21.8093 8.27564 19.7916 7.7388 17.5702C7.20197 15.3488 7.59071 12.9423 8.8495 10.98C9.14569 10.5172 9.49741 10.073 9.92318 9.70272C10.497 9.20291 11.2005 8.83267 11.9039 8.49946C12.9961 7.98114 14.1809 7.49983 15.4026 7.53686C16.1616 7.70346 18.6051 8.11072 19.3641 8.49946Z" fill="#FFCA55"/>
<path d="M16.4949 23.8641C15.9026 24.0122 15.3102 24.1047 14.7178 23.9751C14.5697 23.9381 13.9588 23.753 13.3665 23.5679C13.2554 23.5309 13.1628 23.4753 13.0518 23.4383L13.459 22.4572C13.8292 22.4017 14.218 22.4202 14.5142 22.4387C15.4768 22.5127 16.0506 23.1236 16.4949 23.8641Z" fill="#492A04"/>
<path d="M13.4774 22.4388L13.0701 23.4199C12.8294 23.3088 12.5888 23.1792 12.3481 23.0497C12.4407 22.9386 12.5518 22.8275 12.6628 22.735C12.848 22.5684 13.1441 22.4758 13.4774 22.4388Z" fill="#663C04"/>
<path d="M8.09039 13.8123C7.92379 14.6268 7.90527 16.2928 7.90527 16.3298C8.09039 16.2373 8.25699 16.1447 8.36806 16.0337C8.70127 15.719 8.7383 15.1636 8.7383 14.7378C8.75681 14.1455 8.62723 14.0529 8.09039 13.8123C8.1089 13.8123 8.1089 13.8123 8.09039 13.8123Z" fill="#663C04"/>
<path d="M10.7378 18.5143C10.7933 18.6809 10.8303 18.8475 10.8673 19.0141C11.2191 19.1067 11.6263 19.1252 11.9595 19.1807C12.4038 19.2362 12.5519 18.9401 12.8111 18.6254C13.3294 17.996 13.1073 17.4591 12.9777 16.8112C12.4593 16.7372 11.867 16.6631 11.5153 16.9038C11.1635 17.1259 10.7563 17.6998 10.5156 18.1441C10.5897 18.2551 10.6822 18.3847 10.7378 18.5143Z" fill="#663C04"/>
<path d="M12.8481 13.2755C13.3294 13.0163 14.255 12.3499 14.1254 11.702C14.0699 11.4058 13.7367 11.2577 13.459 11.1467C12.9036 11.3133 12.3483 11.5909 12.0891 12.1278C11.941 12.424 11.8115 12.8127 11.9781 13.0904C12.2002 13.4421 12.5334 13.4606 12.8481 13.2755Z" fill="#663C04"/>
<path d="M16.2171 10.2396C16.1801 10.4062 16.1616 10.5728 16.1431 10.7394C16.1431 10.7394 16.1431 10.7579 16.1431 10.7764C16.4763 11.0171 16.828 11.2763 17.1612 11.3688C17.4019 11.4243 17.698 11.2207 17.9387 11.0726C18.2534 10.869 18.4015 10.6654 18.4385 10.3692C17.7906 9.98044 17.0872 9.59169 16.3467 9.57318C16.2912 9.79532 16.2541 10.0175 16.2171 10.2396Z" fill="#663C04"/>
<path d="M22.1593 11.3318C21.9927 11.4984 21.8076 11.6465 21.6965 11.8501C21.4559 12.2389 21.4004 13.1644 21.6595 13.5902C21.9742 14.127 22.9183 13.7753 23.4366 13.7938C23.5292 13.7938 23.6218 13.7938 23.7143 13.8123C23.4552 12.8312 22.8258 12.0537 22.1593 11.3318Z" fill="#492A04"/>
<path d="M16.8653 19.7175C17.328 20.0137 17.5317 19.8841 17.9945 19.7175C18.4573 19.5509 18.9941 19.5324 19.4384 19.3473C19.9937 19.1066 20.1048 18.7734 20.2344 18.1811C20.5306 16.7742 19.6975 15.645 18.1981 15.682H18.1796C17.0874 16.0892 16.532 16.9408 16.3099 18.1255C16.1803 18.7364 16.3284 19.3658 16.8653 19.7175Z" fill="#492A04"/>
<path d="M24.1956 12.0907C23.2885 10.3321 21.4188 8.96224 19.6787 8.07368C18.4199 7.44428 15.4396 7 15.384 7C13.4588 7 11.2559 7.92558 9.75649 9.12884C8.31258 10.3136 7.44253 12.2203 7.12783 14.0159C6.47992 17.7923 8.3496 21.4946 11.4966 23.5679C11.5521 23.605 12.6628 24.3084 13.2182 24.4565C14.4214 24.9193 15.7358 25.1044 17.0131 24.8452C18.9198 24.438 20.919 23.2162 22.4925 22.124C24.0845 21.0133 24.825 19.4954 24.9546 17.5702C25.0656 15.8301 25.0286 13.6827 24.1956 12.0907ZM22.1963 11.5354C22.7332 12.1277 23.2515 12.7571 23.4366 13.5161C23.3626 13.5161 23.2885 13.4976 23.2145 13.4976C22.7887 13.4976 22.0297 13.7753 21.7706 13.331C21.5669 12.9978 21.6039 12.2573 21.8076 11.9426C21.9186 11.7945 22.0667 11.6649 22.1963 11.5354ZM8.16449 14.0529C8.55323 14.2566 8.64579 14.3121 8.64579 14.8119C8.64579 15.1636 8.60877 15.6079 8.36811 15.8671C8.27556 15.9596 8.16449 16.0337 8.0349 16.1077C8.01639 16.0707 8.0349 14.7008 8.16449 14.0529ZM14.6436 23.8456C14.514 23.8271 13.9771 23.6605 13.4773 23.4939C13.1626 23.3643 12.8664 23.2162 12.5703 23.0681C12.6628 22.9756 12.7369 22.883 12.8479 22.7904C13.2182 22.4757 13.9957 22.4757 14.477 22.5128C15.31 22.5868 15.8098 23.1237 16.1985 23.7716C15.6802 23.8826 15.1434 23.9567 14.6436 23.8456ZM23.3255 19.8471C22.4555 21.365 20.4932 22.1981 19.0123 22.9756C18.4385 23.2717 17.8831 23.5124 17.3092 23.6975C17.0501 23.1422 16.8279 22.4943 16.2726 22.1796C15.8468 21.9204 15.384 21.5687 14.8842 21.4946C14.3289 21.4206 13.4958 21.4206 12.9405 21.5502C12.3481 21.6983 11.7002 22.4943 11.6817 22.4943C9.90458 21.217 8.59025 19.2547 8.16449 17.1259C8.53472 16.9408 8.94197 16.7371 9.21965 16.4409C9.57137 16.0707 9.57137 15.5154 9.60839 15.0526C9.66393 14.5713 9.71946 14.0715 9.40477 13.6642C9.16411 13.331 8.71984 13.2755 8.42365 13.0163C8.73835 12.0722 9.21965 11.1651 9.88607 10.4432C11.1264 9.05479 13.5144 8.05516 15.3655 8.03665C16.3837 8.25879 17.4018 8.4254 18.4014 8.70307C19.6047 9.03628 20.7524 9.83228 21.6965 10.6653C21.3818 11.0726 20.9375 11.3132 20.7894 11.8501C20.6413 12.3869 20.6413 13.0718 20.8079 13.5901C20.956 14.0159 21.2893 14.4232 21.715 14.5713C22.4 14.8119 23.1404 14.3121 23.8068 14.6453C23.8253 14.6453 23.8253 14.6453 23.8439 14.6638C23.8809 14.886 23.8994 15.1266 23.9179 15.3488C23.992 16.8297 24.103 18.4957 23.3255 19.8471ZM13.4958 10.2951C12.7739 10.0914 11.367 11.2577 11.1264 12.2758C11.0153 12.7941 11.0523 13.331 11.4781 13.7012C11.8113 13.9974 12.3851 14.2381 12.8294 14.1455C13.3107 14.0529 13.792 13.6457 14.1438 13.3125C14.5325 12.9608 14.8287 12.498 14.8842 11.9796C14.9768 11.0541 14.2918 10.5172 13.4958 10.2951ZM12.8479 13.0348C12.5888 13.1829 12.3111 13.1644 12.163 12.8867C12.0334 12.6646 12.1445 12.3499 12.2556 12.1092C12.4592 11.6834 12.9035 11.4428 13.3477 11.3132C13.5699 11.3873 13.8291 11.5168 13.8846 11.7575C13.9586 12.2943 13.2182 12.8127 12.8479 13.0348ZM20.5303 15.9596C19.9749 15.4598 19.1604 14.9045 18.1238 15.0341C16.5688 15.2192 15.6432 16.8112 15.6062 18.4217C15.5691 19.6805 16.8094 20.9948 18.0867 20.532C18.7717 20.2914 19.7898 20.2358 20.3822 19.7916C20.9931 19.3288 20.9375 18.4957 20.9931 17.8108C21.0301 17.1074 21.0671 16.4595 20.5303 15.9596ZM19.9379 18.144C19.8453 18.6253 19.7528 18.903 19.29 19.1066C18.9383 19.2547 18.4755 19.2732 18.0867 19.4213C17.698 19.5694 17.5314 19.6805 17.1426 19.4213C16.6798 19.1251 16.5688 18.6068 16.6613 18.0885C16.8465 17.1074 17.3092 16.3854 18.2163 16.0522H18.2348C19.4751 16.0337 20.1786 16.9778 19.9379 18.144ZM13.2922 15.9782C12.8294 15.6264 12.0149 15.793 11.441 15.9226C10.9042 16.0522 10.5525 16.6075 10.2378 17.0148C9.97863 17.348 9.55286 17.7923 9.66393 18.2551C9.73798 18.5698 9.9416 18.8104 10.0157 19.1436C10.0712 19.3473 10.0712 19.5139 10.2563 19.6805C10.6265 19.9952 11.6077 20.0137 12.0704 20.0692C12.6258 20.1248 12.8479 19.9211 13.1997 19.5139C13.5329 19.1251 13.9216 18.7364 14.0327 18.2181C14.1623 17.5887 13.9771 16.4965 13.2922 15.9782ZM12.6998 18.5142C12.4592 18.7919 12.3296 19.0511 11.9409 19.0141C11.6447 18.977 11.293 18.94 10.9783 18.866C10.9412 18.7179 10.9227 18.5698 10.8672 18.4402C10.8302 18.3291 10.7376 18.2181 10.6821 18.0885C10.8857 17.6997 11.2374 17.1999 11.5521 17.0148C11.8668 16.8112 12.3851 16.8852 12.8294 16.9408C12.959 17.4961 13.1626 17.9589 12.6998 18.5142ZM17.6425 12.1462C18.4755 11.8315 19.3085 11.1096 19.1419 10.1285C19.0493 9.59163 18.3274 9.33247 17.8831 9.12884C17.3092 8.86968 16.7354 8.77712 16.1245 8.86968C15.7543 9.11033 15.1619 10.98 15.6802 11.4058C16.1615 11.7945 17.0316 12.3869 17.6425 12.1462ZM18.1423 10.4247C18.1052 10.6283 17.9942 10.7949 17.772 10.9245C17.5869 11.0355 17.3833 11.1836 17.2167 11.1466C16.976 11.0911 16.7169 10.8874 16.4947 10.7208C16.4947 10.7023 16.4947 10.7023 16.4947 10.6838C16.5132 10.5542 16.5318 10.4432 16.5503 10.3136C16.5688 10.147 16.6058 9.99889 16.6243 9.83228C17.1612 9.86931 17.6795 10.147 18.1423 10.4247Z" fill="#231F20"/>
</svg>
