<svg width="32" height="32" viewBox="0 0 32 32" fill="none" xmlns="http://www.w3.org/2000/svg">
<rect width="32" height="32" rx="16" fill="#FD6A7E" fill-opacity="0.2"/>
<path d="M23.469 9.58802C21.3517 7.47066 18.0661 7.47066 16.0218 9.58802C13.9774 7.54367 10.6188 7.54367 8.5745 9.58802C6.60317 11.5594 6.45714 14.6259 8.28245 16.7432C9.23161 17.8384 10.1808 18.7876 11.2029 19.7367C11.641 19.5177 12.2251 19.2987 12.7362 19.0066C12.7362 19.0066 14.9266 18.0575 16.3138 16.0131C14.5615 17.2543 12.8822 17.7654 12.1521 17.9114C11.8601 16.8162 12.0791 15.648 12.8822 14.8449C13.9774 13.7497 17.1169 13.4577 18.2121 11.7054C18.3582 11.4863 18.6502 11.4863 18.7962 11.7054C19.3073 12.8736 20.1835 15.648 18.2851 18.4955C17.336 19.9558 15.2186 20.6129 13.6854 19.8098C13.1743 20.1748 12.6632 20.5399 12.2981 20.7589C13.4663 21.7811 14.7075 22.7302 16.0218 23.6064C19.0153 21.7081 21.5707 19.3717 23.8341 16.7432C25.5134 14.6259 25.3673 11.5594 23.469 9.58802Z" fill="#FD6A7E"/>
</svg>
