<svg width="32" height="32" viewBox="0 0 32 32" fill="none" xmlns="http://www.w3.org/2000/svg">
<rect width="32" height="32" rx="16" fill="#DA6B6B" fill-opacity="0.2"/>
<path fill-rule="evenodd" clip-rule="evenodd" d="M19.3809 11.8308C19.4766 11.8095 19.5556 11.7639 19.6158 11.693C19.6766 11.6221 19.7068 11.5391 19.7068 11.4428C19.7068 11.3585 19.6806 11.2849 19.6297 11.2233C19.5796 11.1604 19.4966 11.1136 19.3809 11.0801V11.8308ZM19.1019 9.79009C19.0269 9.81687 18.968 9.86099 18.9239 9.92262C18.8805 9.98417 18.859 10.0511 18.859 10.1247C18.859 10.1929 18.8785 10.2544 18.9186 10.3134C18.958 10.3709 19.0196 10.4178 19.1019 10.4539V9.79009ZM19.1019 11.7988V10.9985C18.853 10.9262 18.6703 10.8193 18.5547 10.6746C18.4382 10.5288 18.3799 10.3535 18.3799 10.1474C18.3799 9.93736 18.4462 9.76204 18.5773 9.62023C18.7092 9.47699 18.8837 9.39538 19.1019 9.37401V9.18526H19.3809V9.37401C19.585 9.3981 19.7468 9.46767 19.868 9.5827C19.9885 9.69647 20.0654 9.85033 20.0989 10.0417L19.6125 10.1033C19.5823 9.95339 19.5048 9.85167 19.381 9.79823V10.5463C19.6888 10.6278 19.8988 10.7363 20.0099 10.8674C20.1216 10.9999 20.1772 11.1685 20.1772 11.3759C20.1772 11.6061 20.1076 11.8002 19.9663 11.9594C19.8259 12.1173 19.6312 12.215 19.3809 12.2551V12.6111H19.1019V12.2578C18.8825 12.231 18.7038 12.1507 18.5659 12.0142C18.4275 11.8777 18.3405 11.6837 18.3017 11.4348L18.8002 11.3759C18.8202 11.4776 18.8591 11.5646 18.9152 11.6395C18.9715 11.7131 19.0336 11.7652 19.1019 11.7988ZM21.1921 8.94571C20.693 8.4466 20.0019 8.13745 19.2398 8.13745C18.4769 8.13745 17.7865 8.44664 17.2867 8.94571C16.7869 9.44483 16.4777 10.1367 16.4777 10.8981C16.4777 11.6609 16.7869 12.3515 17.2867 12.8518C17.7865 13.3511 18.4769 13.6602 19.2398 13.6602C20.0019 13.6602 20.693 13.351 21.1921 12.8518C21.6919 12.3515 22.0011 11.6609 22.0011 10.8981C22.0011 10.1367 21.6919 9.44479 21.1921 8.94571ZM12.2276 21.5662L12.2256 21.5621L12.2236 21.5581L12.2155 21.538L12.2063 21.5166L12.1969 21.4953L12.1862 21.4739L12.1761 21.451L12.166 21.4283L12.1547 21.4043L12.1433 21.3801L12.1313 21.356L12.1193 21.3306L12.1071 21.3052L12.0939 21.2785L12.0811 21.2517L12.0677 21.2249L12.0537 21.1981L12.0395 21.1701L12.0255 21.142L12.0108 21.1125L11.9961 21.0844V21.0831L11.9807 21.055L11.9799 21.0537L11.9653 21.0242H11.9647L11.9493 20.9948V20.9935L11.9333 20.964L11.9164 20.9333V20.9319L11.8997 20.9011L11.8837 20.8703H11.8829L11.8662 20.8383L11.8488 20.8061L11.8315 20.7727H11.8308L11.8133 20.7406L11.7954 20.7071L11.7772 20.675L11.7765 20.6736L11.7585 20.6402L11.7405 20.6067H11.7397L11.721 20.5733L11.7023 20.5385H11.7016L11.6829 20.5051L11.6635 20.4703H11.6627L11.644 20.4355L11.624 20.4008L11.6039 20.366V20.3647L11.5839 20.3299L11.5637 20.2951L11.5437 20.2604V20.259L11.5236 20.2242H11.5228L11.5021 20.1881L11.4821 20.1533L11.4814 20.152L11.446 20.0905L11.44 20.0811L11.4191 20.045H11.4186L11.3977 20.0088L11.3764 19.9741V19.9727L11.355 19.938V19.9366L11.3336 19.9018L11.3121 19.8656L11.2907 19.8295L11.2693 19.7933H11.2686L11.2473 19.7572L11.2252 19.7224V19.7212L11.2038 19.6864L11.1823 19.6502H11.1818L11.1596 19.6155V19.6141L11.1382 19.5793L11.1162 19.5446V19.5432L11.098 19.5151L11.0806 19.4856L11.0626 19.4576H11.0619L11.0445 19.4295V19.4282L11.0265 19.4001L11.0083 19.372L10.9911 19.3439V19.3426L10.9729 19.3158L10.9723 19.3145L10.9549 19.2877V19.2864L10.9375 19.2597L10.9195 19.2316H10.9188L10.9014 19.2035L10.8839 19.1767L10.8666 19.15L10.8659 19.1487L10.8485 19.1219L10.8306 19.0946L10.8132 19.0678L10.7957 19.041L10.7783 19.0156V19.0142L10.7609 18.9888L10.7436 18.9635V18.9621L10.7262 18.9367L10.7088 18.9113L10.6921 18.8858L10.6753 18.8617H10.6746L10.6579 18.8363L10.6404 18.8122L10.6244 18.7881V18.7868L10.6077 18.764L10.607 18.7627L10.591 18.7399L10.5743 18.7158L10.5581 18.693H10.5576L10.5414 18.6703L10.5254 18.6475L10.5093 18.6247L10.4933 18.6034V18.602L10.4773 18.5806L10.4619 18.5592L10.4464 18.5379L10.4304 18.5178L10.4157 18.4977V18.4964L10.4003 18.4777H10.3996L10.3849 18.4576L10.3702 18.4375L10.3554 18.4187L10.3407 18.4001L10.326 18.3813L10.3113 18.3639L10.2979 18.3465L10.2831 18.3291L10.2564 18.2957L10.2297 18.2649V18.2635L10.2163 18.2488L10.2029 18.2341L10.1655 18.1926C10.1453 18.1712 10.1253 18.1511 10.1066 18.1324C9.93662 17.9705 9.79876 17.9143 9.68507 17.9103C9.57191 17.9063 9.46563 17.9558 9.37466 17.9999L9.1658 18.1003C8.74569 18.2997 8.05514 18.6276 7.95883 18.831C7.88113 18.9955 7.95485 19.2565 8.03772 19.5522L8.10871 19.8105C8.27727 20.4876 8.27999 21.2772 8.28268 22.0453C8.28524 22.8456 8.28927 23.6257 8.48465 24.2011C8.50737 24.268 8.51807 24.2921 8.5208 24.2921C8.56639 24.2908 8.65867 24.2372 8.77907 24.1663C9.00319 24.0351 9.45619 23.8251 9.97143 23.5869C10.9817 23.1198 12.2422 22.5377 12.3414 22.3183C12.3761 22.2406 12.3841 22.1403 12.3668 22.0225C12.348 21.8901 12.2998 21.7375 12.2276 21.5662ZM13.7725 16.5627C13.2768 16.6618 12.6358 16.9307 12.0088 17.2371C11.4534 17.5075 10.9075 17.8099 10.4799 18.0548L10.492 18.0682L10.4946 18.0708L10.516 18.0976L10.524 18.1069L10.5288 18.1123L10.5388 18.1243L10.5415 18.127L10.5535 18.143H10.5542L10.5789 18.1739L10.585 18.1818L10.5916 18.1899L10.6003 18.2006L10.6043 18.2059L10.6157 18.2206L10.6177 18.2233L10.6312 18.2407L10.6317 18.242L10.6445 18.2567L10.6479 18.2621L10.6572 18.2755L10.6639 18.2835L10.6706 18.2928L10.6967 18.3263L10.698 18.329L10.7249 18.3651L10.7295 18.3718L10.7389 18.3839L10.7462 18.3946L10.7529 18.4025L10.763 18.4173L10.767 18.4226L10.7797 18.4414H10.781L10.7945 18.4614L10.797 18.4641L10.8092 18.4815L10.8145 18.4881L10.8312 18.5123L10.8372 18.5217L10.8486 18.5378L10.8519 18.5417L10.8788 18.5805L10.8808 18.5832L10.8841 18.5873L10.8955 18.6046L10.9015 18.6127L10.9249 18.6461L10.9369 18.6649L10.9396 18.6675L10.9543 18.6903L10.969 18.7117L10.9724 18.717L10.9844 18.7331L10.9904 18.7425L10.9991 18.7559L11.0084 18.7692L11.0138 18.7772L11.0266 18.7973L11.0286 18.8L11.0587 18.8454L11.0627 18.8508L11.0739 18.8682L11.0807 18.8789L11.0888 18.891L11.0994 18.9071L11.1041 18.9137L11.1182 18.9352L11.1195 18.9365L11.1342 18.9606L11.1355 18.9633L11.1497 18.9833L11.1544 18.9913L11.165 19.0074L11.1731 19.0194L11.1804 19.0315L11.1919 19.0476L11.1959 19.0543L11.2099 19.077L11.2106 19.0784L11.2265 19.1025L11.228 19.1064L11.2413 19.1265L11.2467 19.1346L11.2567 19.1506L11.2654 19.164L11.2721 19.1747L11.2841 19.1935L11.2876 19.1988L11.3028 19.2229L11.3183 19.2483L11.3209 19.2524L11.3337 19.2724L11.3397 19.2818L11.3491 19.2965L11.3583 19.3112L11.3643 19.322L11.3765 19.342L11.3798 19.346L11.3952 19.3714L11.4152 19.4035L11.4179 19.4076L11.4353 19.4357L11.4394 19.4437L11.4553 19.4691L11.4621 19.4798L11.4755 19.5012L11.4842 19.5159L11.4955 19.5334L11.5062 19.5521L11.5149 19.5668L11.5284 19.5896L11.5351 19.6002L11.5504 19.6257L11.5544 19.6323L11.5732 19.6618L11.5745 19.6659L11.5945 19.698V19.6993L11.6147 19.7315L11.6167 19.7355L11.6334 19.7649L11.6388 19.7716L11.6535 19.797L11.6603 19.809L11.673 19.8305L11.6815 19.8452L11.6922 19.8639L11.703 19.8827L11.7117 19.896L11.7244 19.9187L11.7458 19.9549L11.7498 19.9616L11.7672 19.9924L11.7692 19.9951L11.7705 19.9964L11.8074 20.0606L11.8094 20.0647L11.8261 20.0928L11.8301 20.1007L11.8448 20.1261L11.8515 20.1369L11.8997 20.2225L11.9124 20.244L11.9184 20.2547L11.9325 20.2801L11.9365 20.2868L11.9525 20.3149L11.9545 20.3189L11.9893 20.3818L11.9921 20.3858L12.0756 20.537L12.0871 20.5585L12.0924 20.5678L12.1252 20.628L12.1412 20.6574L12.142 20.6588C12.2249 20.8127 12.3005 20.9572 12.3654 21.0883L12.3708 21.0991L12.3828 21.1231L12.3922 21.1432L12.3948 21.1472L12.4176 21.1955H12.4182L12.4404 21.2409L12.4431 21.2477L12.4511 21.2637L12.4544 21.2717L12.4611 21.2864C14.3306 20.5906 15.2907 20.8996 16.3071 21.2276C16.9735 21.4417 17.6666 21.6638 18.6776 21.5888C19.4738 21.53 21.2945 20.6736 22.7899 19.7221C24.0277 18.9326 25.0326 18.0976 24.9992 17.6426L24.9952 17.5957C24.9638 17.3722 24.8226 17.2411 24.6386 17.1688C24.4292 17.0859 24.1628 17.0739 23.9234 17.0913C23.8624 17.0966 23.8022 17.1033 23.7459 17.11C23.1907 17.1876 22.4513 17.4245 21.7434 17.7269C21.0602 18.0199 20.4105 18.3746 19.9851 18.7078C19.8498 19.0062 19.5321 19.1641 19.1218 19.2284C18.1463 19.3823 16.61 18.9674 16.018 18.8082L15.8821 18.772C15.7946 18.7479 15.7423 18.6583 15.7657 18.5713C15.7886 18.483 15.8788 18.4308 15.9665 18.4549L16.1022 18.491C16.6771 18.6449 18.1671 19.0477 19.0724 18.9045C19.4779 18.8403 19.7549 18.6556 19.7234 18.2582V18.2555V18.2514L19.7228 18.2488V18.2462L19.7221 18.2421V18.2395L19.7214 18.2355V18.2328L19.7206 18.2315V18.2288L19.72 18.2261V18.2221L19.7193 18.2195L19.7186 18.2154V18.2127V18.2114L19.718 18.2088L19.7173 18.2061V18.2021L19.7165 18.1994L19.716 18.1954V18.1914L19.7152 18.1901L19.7105 18.1633C19.5761 17.4888 18.4747 17.0339 17.2376 16.7702C15.9609 16.4985 14.5525 16.4383 13.8627 16.5467L13.7725 16.5627ZM10.6806 21.4283C10.6297 21.3868 10.5622 21.3654 10.492 21.3735C10.4223 21.3815 10.3609 21.4176 10.3208 21.4685C10.2799 21.5193 10.2585 21.5875 10.2658 21.6572C10.2739 21.7281 10.31 21.7884 10.3609 21.8298C10.4118 21.8686 10.4773 21.89 10.5469 21.8833H10.5495C10.6205 21.8752 10.6813 21.8392 10.7222 21.7883C10.7616 21.7387 10.783 21.6719 10.7763 21.6022L10.7757 21.5996C10.7676 21.5301 10.7315 21.4685 10.6806 21.4283ZM14.4363 25.7239C14.3459 25.7239 14.2723 25.6503 14.2723 25.5594C14.2723 25.4683 14.3459 25.3947 14.4363 25.3947H22.4888C22.5792 25.3947 22.6535 25.4683 22.6535 25.5594C22.6535 25.6503 22.5792 25.7239 22.4888 25.7239H14.4363ZM23.3132 25.7239C23.2222 25.7239 23.1486 25.6503 23.1486 25.5594C23.1486 25.4683 23.2222 25.3947 23.3132 25.3947H24.3195C24.4104 25.3947 24.4842 25.4683 24.4842 25.5594C24.4842 25.6503 24.4104 25.7239 24.3195 25.7239H23.3132ZM7.16457 25.6958C7.07429 25.6958 7 25.6222 7 25.5312C7 25.4402 7.07429 25.3667 7.16457 25.3667H10.9798C11.0707 25.3667 11.1443 25.4402 11.1443 25.5312C11.1443 25.6222 11.0707 25.6958 10.9798 25.6958H7.16457ZM18.8095 15.8668C18.8945 15.8976 18.9374 15.9926 18.9059 16.0769C18.8743 16.1612 18.78 16.2054 18.695 16.1732C18.6857 16.1692 15.3062 14.918 14.1933 15.1964C13.0546 15.4814 10.5334 16.8972 10.5267 16.8999C10.4464 16.9441 10.3475 16.9146 10.3033 16.8357C10.2597 16.7567 10.2886 16.6564 10.3681 16.6122C10.3756 16.6082 12.93 15.1737 14.1137 14.8779C15.3229 14.5755 18.7994 15.8628 18.8095 15.8668ZM9.5352 24.7778C9.44422 24.7778 9.37051 24.7042 9.37051 24.6132C9.37051 24.5236 9.44422 24.45 9.5352 24.45H19.2592C19.3494 24.45 19.4237 24.5236 19.4237 24.6132C19.4237 24.7042 19.3494 24.7778 19.2592 24.7778H9.5352ZM21.7207 8.50814C21.0938 7.8819 20.2265 7.49375 19.2691 7.49375C18.3116 7.49375 17.4445 7.8819 16.8175 8.50814C16.1912 9.13442 15.8025 10.0015 15.8025 10.9597C15.8025 11.9166 16.1912 12.7837 16.8175 13.4113C17.4445 14.0376 18.3116 14.4256 19.2691 14.4256C20.2265 14.4256 21.0938 14.0376 21.7207 13.4113C22.3469 12.7837 22.7351 11.9166 22.7351 10.9597C22.7351 10.0015 22.3469 9.13438 21.7207 8.50814ZM19.2691 7C20.3618 7 21.3514 7.44299 22.0679 8.16024C22.7852 8.87749 23.2289 9.86641 23.2289 10.9597C23.2289 12.0516 22.7852 13.0419 22.0686 13.7578C21.3514 14.475 20.3618 14.9193 19.2691 14.9193C18.1765 14.9193 17.1869 14.475 16.4702 13.7591C15.753 13.0419 15.3094 12.0516 15.3094 10.9597C15.3094 9.86641 15.753 8.87749 16.469 8.16024C17.1869 7.44299 18.1765 7 19.2691 7ZM10.4559 21.0469C10.615 21.0296 10.7683 21.0777 10.8854 21.1715C11.0019 21.2638 11.0842 21.403 11.1022 21.5621L11.1029 21.5676C11.1196 21.7254 11.0707 21.8767 10.9785 21.9931C10.8854 22.1095 10.7469 22.1911 10.587 22.2098H10.5816C10.4238 22.2273 10.2725 22.1778 10.1568 22.0854C10.0396 21.993 9.95807 21.8539 9.93992 21.6946C9.92193 21.5341 9.97008 21.3815 10.0638 21.2637C10.1568 21.1473 10.2953 21.0657 10.4559 21.0469Z" fill="#DC4242"/>
</svg>
