<svg width="32" height="32" viewBox="0 0 32 32" fill="none" xmlns="http://www.w3.org/2000/svg">
<rect width="32" height="32" rx="16" fill="#059669" fill-opacity="0.2"/>
<path d="M25 17.2554C22.2207 18.3805 19.1827 19 16 19C12.8173 19 9.7793 18.3805 7 17.2554M20 10V8C20 6.89543 19.1046 6 18 6H14C12.8954 6 12 6.89543 12 8V10M16 16H16.01M9 24H23C24.1046 24 25 23.1046 25 22V12C25 10.8954 24.1046 10 23 10H9C7.89543 10 7 10.8954 7 12V22C7 23.1046 7.89543 24 9 24Z" stroke="#059669" stroke-width="2" stroke-linecap="round" stroke-linejoin="round"/>
</svg>
