<svg width="32" height="32" viewBox="0 0 32 32" fill="none" xmlns="http://www.w3.org/2000/svg">
<rect width="32" height="32" rx="16" fill="#5B8BAA" fill-opacity="0.2"/>
<g clip-path="url(#clip0_1595_483)">
<path fill-rule="evenodd" clip-rule="evenodd" d="M24.549 16.0393C24.549 11.3376 20.7107 7.52625 15.9759 7.52625C11.2411 7.52625 7.40283 11.3376 7.40283 16.0393C7.40283 20.7409 11.2411 24.5523 15.9759 24.5523C20.7107 24.5523 24.549 20.7409 24.549 16.0393Z" fill="#5B8BAA"/>
<path fill-rule="evenodd" clip-rule="evenodd" d="M14.8307 20.3683C14.0199 21.6173 12.9319 22.5785 11.7017 23.2375C11.7017 23.2391 11.7014 23.2407 11.7014 23.2423C11.7014 23.2972 11.706 23.3508 11.7079 23.4053C12.5477 23.8964 13.4391 24.2315 14.3482 24.4142C15.7334 23.7574 16.9588 22.7252 17.8518 21.3498C19.1577 19.338 19.4997 16.9853 18.9976 14.8237C17.9971 14.972 17.0531 15.2916 16.1968 15.7523C16.199 17.3359 15.7592 18.9381 14.8307 20.3683Z" fill="#5B8BAA"/>
<path fill-rule="evenodd" clip-rule="evenodd" d="M12.6454 23.8724C12.3278 23.7347 12.0135 23.584 11.7078 23.4053C11.7059 23.3509 11.7013 23.297 11.7013 23.242C11.7013 23.2404 11.7016 23.2391 11.7016 23.2375C12.6465 22.7314 13.5059 22.0455 14.2219 21.1892C11.7239 20.4625 9.58835 18.6196 8.60158 16.014C8.23647 15.0499 8.0605 14.0615 8.05271 13.0883C8.19295 12.6924 8.36597 12.3091 8.56316 11.938L8.52528 11.83C7.81226 13.0718 7.40283 14.5076 7.40283 16.0391C7.40283 19.5643 9.56041 22.5887 12.6357 23.8817L12.6454 23.8724Z" fill="#FEFEFE"/>
<path fill-rule="evenodd" clip-rule="evenodd" d="M17.8518 21.3499C16.9588 22.7253 15.7329 23.7575 14.3474 24.4138C15.7678 24.6995 17.2274 24.6194 18.589 24.2011C19.3713 23.6148 20.0655 22.8851 20.6275 22.0195C22.0675 19.8012 22.3378 17.1682 21.5939 14.8342C21.1638 14.7675 20.724 14.7291 20.2745 14.7291C19.8406 14.7291 19.4143 14.7619 18.9976 14.8238C19.5 16.9852 19.1577 19.3381 17.8518 21.3499Z" fill="#E7C162"/>
<path fill-rule="evenodd" clip-rule="evenodd" d="M15.9218 15.9087C17.198 15.1601 18.6853 14.7293 20.2746 14.7293C21.8304 14.7293 23.2871 15.1444 24.5447 15.8638C24.5237 14.8338 24.3187 13.8489 23.9606 12.9397C22.6541 12.1394 21.1163 11.676 19.4687 11.676C17.3879 11.676 15.4807 12.4126 13.9958 13.6365C14.5076 14.5177 15.1634 15.2807 15.9218 15.9087Z" fill="#5B8BAA"/>
<path fill-rule="evenodd" clip-rule="evenodd" d="M13.9959 13.6366C15.4808 12.4124 17.388 11.6761 19.4685 11.6761C21.1167 11.6761 22.6545 12.1398 23.9607 12.9406C23.433 11.6006 22.5741 10.4255 21.4826 9.51605C20.5624 9.18072 19.5687 8.99664 18.5314 8.99664C16.4251 8.99664 14.4975 9.75215 13.0051 11.0033C13.0951 11.4635 13.2201 11.9226 13.392 12.3764C13.5599 12.82 13.7649 13.2389 13.9959 13.6366Z" fill="#E7C162"/>
<path opacity="0.3" fill-rule="evenodd" clip-rule="evenodd" d="M20.7562 8.99658C21.6554 10.3433 22.1803 11.9575 22.1803 13.6945C22.1803 18.3961 18.342 22.2075 13.6072 22.2075C11.8583 22.2075 10.2324 21.6862 8.87646 20.7931C10.4116 23.0918 13.0396 24.6085 16.0252 24.6085C20.76 24.6085 24.5983 20.7971 24.5983 16.0954C24.5983 13.1305 23.0712 10.5209 20.7562 8.99658Z" fill="#010202"/>
<path fill-rule="evenodd" clip-rule="evenodd" d="M15.9761 7.92648C11.471 7.92648 7.80597 11.5658 7.80597 16.0393C7.80597 20.5126 11.471 24.1522 15.9761 24.1522C20.4812 24.1522 24.1462 20.5126 24.1462 16.0393C24.1462 11.5658 20.4812 7.92648 15.9761 7.92648ZM15.9761 24.9525C11.0266 24.9525 7 20.9539 7 16.0393C7 11.1246 11.0266 7.12616 15.9761 7.12616C20.9256 7.12616 24.9522 11.1246 24.9522 16.0393C24.9522 20.9539 20.9256 24.9525 15.9761 24.9525Z" fill="#2E2E30"/>
<path fill-rule="evenodd" clip-rule="evenodd" d="M12.3748 23.3117C12.9877 23.6201 13.6316 23.849 14.2957 23.9941C15.6065 23.3461 16.7169 22.3593 17.5129 21.1329C18.6488 19.3832 19.0585 17.3199 18.6824 15.2839C17.9562 15.4259 17.2571 15.6646 16.5965 15.996C16.5541 17.627 16.063 19.209 15.1691 20.585C14.4556 21.6841 13.497 22.6183 12.3748 23.3117ZM14.3481 24.8142C14.3213 24.8142 14.2947 24.8115 14.2681 24.8062C13.2988 24.6114 12.3687 24.2561 11.5033 23.75C11.3851 23.6809 11.3104 23.5566 11.3053 23.4205L11.3029 23.3701C11.3005 23.3277 11.2983 23.285 11.2983 23.2421C11.2983 23.0951 11.3797 22.955 11.51 22.8851C12.7203 22.2371 13.7514 21.2919 14.4919 20.1515C15.3457 18.8368 15.7957 17.3154 15.7938 15.7527C15.7935 15.6057 15.8744 15.4701 16.0047 15.4002C16.92 14.908 17.907 14.5807 18.9381 14.4279C19.1488 14.3969 19.343 14.5303 19.3903 14.7336C19.9402 17.1009 19.5139 19.5275 18.1902 21.5665C17.2888 22.9553 16.0203 24.0648 14.5217 24.7749C14.4671 24.8008 14.4078 24.8142 14.3481 24.8142Z" fill="#2E2E30"/>
<path fill-rule="evenodd" clip-rule="evenodd" d="M15.5222 19.0585C13.417 18.1859 11.664 16.4878 10.7976 14.2C10.2176 12.6682 10.1136 11.0755 10.4089 9.57947C9.33127 10.542 8.52611 11.7534 8.05273 13.0883C8.06053 14.0615 8.23676 15.0499 8.60187 16.0141C9.58838 18.6196 11.7239 20.4625 14.2219 21.1895C14.4382 20.9307 14.6426 20.6581 14.8309 20.3683C15.1052 19.9455 15.332 19.5064 15.5222 19.0585Z" fill="#E7C162"/>
<path fill-rule="evenodd" clip-rule="evenodd" d="M8.45644 13.1551C8.47229 14.084 8.64772 14.9983 8.97898 15.8733C9.86017 18.1996 11.7104 19.9557 14.08 20.7264C14.2285 20.537 14.3669 20.3444 14.4921 20.1515C14.6721 19.8744 14.8384 19.5761 14.9891 19.2613C12.8651 18.2687 11.2513 16.5349 10.4206 14.3407C9.98134 13.1805 9.7922 11.949 9.86017 10.7227C9.25677 11.4446 8.77937 12.2694 8.45644 13.1551ZM14.2218 21.5895C14.1839 21.5895 14.1461 21.5841 14.1084 21.5732C11.3716 20.7769 9.22695 18.8019 8.22459 16.155C7.8517 15.1695 7.65799 14.139 7.64967 13.0916C7.6494 13.0452 7.65692 12.9991 7.6725 12.9553C8.1714 11.5481 9.02438 10.2777 10.1393 9.28211C10.2683 9.16686 10.4569 9.14659 10.6076 9.23142C10.758 9.31626 10.8373 9.48752 10.804 9.65639C10.5138 11.1293 10.642 12.6517 11.175 14.0592C11.9756 16.1729 13.5744 17.8173 15.6774 18.6894C15.7763 18.7302 15.8544 18.8086 15.895 18.907C15.9356 19.0052 15.935 19.1157 15.8934 19.2138C15.6849 19.7044 15.4415 20.1659 15.1694 20.5851C14.9808 20.8758 14.7661 21.165 14.5316 21.4451C14.4537 21.538 14.3395 21.5895 14.2218 21.5895Z" fill="#2E2E30"/>
<path fill-rule="evenodd" clip-rule="evenodd" d="M7.87367 14.998C7.82881 15.3424 7.80597 15.6902 7.80597 16.0392C7.80597 18.835 9.23952 21.3864 11.5519 22.8627C12.2829 22.4658 12.9397 21.968 13.5117 21.3776C11.0607 20.4815 9.15301 18.6063 8.22454 16.155C8.08081 15.7753 7.96394 15.3891 7.87367 14.998ZM12.6359 24.282C12.5827 24.282 12.5292 24.2716 12.4787 24.2502C9.1506 22.851 7 19.6278 7 16.0392C7 14.4951 7.40648 12.971 8.17537 11.6318C8.25328 11.4955 8.40266 11.4152 8.56224 11.4315C8.71913 11.4459 8.85346 11.5499 8.90585 11.698L8.94373 11.8063C8.98081 11.9111 8.97221 12.0266 8.91982 12.1251C8.73579 12.4708 8.58024 12.8174 8.45639 13.1554C8.47224 14.0843 8.64767 14.9982 8.97893 15.8732C9.89128 18.2828 11.8433 20.0803 14.3351 20.8054C14.4652 20.843 14.5675 20.9436 14.607 21.0724C14.6468 21.2013 14.6183 21.341 14.5318 21.4448C13.9168 22.1806 13.1944 22.8062 12.3793 23.3096C12.5115 23.3741 12.6525 23.439 12.8065 23.5057C12.9295 23.559 13.0176 23.6694 13.0418 23.8007C13.066 23.9317 13.0227 24.0661 12.9266 24.1592L12.9166 24.1686C12.8401 24.2425 12.7385 24.282 12.6359 24.282Z" fill="#2E2E30"/>
<path fill-rule="evenodd" clip-rule="evenodd" d="M13.3919 12.3763C12.8444 10.9302 12.723 9.43035 12.9586 8.00818C11.9952 8.3902 11.139 8.92721 10.408 9.58001C10.1135 11.0758 10.2177 12.6685 10.7975 14.2C11.6639 16.4879 13.4166 18.1859 15.5221 19.0585C15.9251 18.1096 16.1422 17.1164 16.1843 16.1234C14.9606 15.1892 13.9752 13.9164 13.3919 12.3763Z" fill="#FEFEFE"/>
<path fill-rule="evenodd" clip-rule="evenodd" d="M10.7789 9.78882C10.5215 11.2203 10.658 12.6937 11.1751 14.0591C11.9268 16.0452 13.3835 17.6168 15.3012 18.5225C15.562 17.8104 15.7195 17.0683 15.7708 16.309C14.5296 15.3134 13.5788 14.0068 13.0146 12.5171C12.5493 11.2878 12.365 9.96889 12.4722 8.6633C11.8608 8.96716 11.2936 9.34411 10.7789 9.78882ZM15.5217 19.4586C15.4702 19.4586 15.4178 19.4487 15.3667 19.4276C13.0568 18.4699 11.2998 16.6636 10.4205 14.3408C9.83481 12.7946 9.69377 11.1219 10.0127 9.50337C10.0296 9.41801 10.0736 9.34064 10.1387 9.28275C10.9231 8.5822 11.8215 8.02811 12.8094 7.63649C12.944 7.58287 13.0979 7.60581 13.2113 7.69598C13.3247 7.78642 13.3803 7.93047 13.3566 8.07293C13.1248 9.47136 13.2677 10.9106 13.7693 12.2354C14.3055 13.6517 15.2257 14.8866 16.4301 15.8062C16.5343 15.8857 16.5929 16.01 16.5872 16.1404C16.5418 17.2027 16.3086 18.2368 15.8933 19.2139C15.8285 19.3668 15.6792 19.4586 15.5217 19.4586Z" fill="#2E2E30"/>
<path fill-rule="evenodd" clip-rule="evenodd" d="M14.5241 13.7307C14.9252 14.3585 15.4099 14.9251 15.9698 15.4213C17.2857 14.7058 18.7678 14.3291 20.2745 14.3291C21.5971 14.3291 22.9051 14.622 24.0985 15.1809C24.0268 14.5057 23.8712 13.846 23.6332 13.2108C22.3748 12.4681 20.9378 12.0762 19.4685 12.0762C17.6825 12.0762 15.9402 12.6615 14.5241 13.7307ZM15.9217 16.3088C15.8295 16.3088 15.7379 16.2776 15.6635 16.216C14.8522 15.5443 14.1735 14.7437 13.6467 13.8366C13.5486 13.6678 13.5873 13.4533 13.7383 13.3287C15.3443 12.005 17.3791 11.2759 19.4685 11.2759C21.1325 11.2759 22.7587 11.7334 24.1721 12.5993C24.2463 12.6447 24.3038 12.7133 24.3357 12.7941C24.7199 13.7694 24.926 14.7994 24.9477 15.8559C24.9507 16.0002 24.8749 16.1349 24.75 16.2083C24.6251 16.2819 24.4701 16.2827 24.3435 16.2107C23.1069 15.5032 21.7 15.1294 20.2745 15.1294C18.8146 15.1294 17.3802 15.5181 16.1267 16.2533C16.0633 16.2907 15.9923 16.3088 15.9217 16.3088Z" fill="#2E2E30"/>
<path fill-rule="evenodd" clip-rule="evenodd" d="M13.4494 11.1593C13.5335 11.5376 13.6388 11.8918 13.7691 12.2354C13.8691 12.499 13.9876 12.765 14.1227 13.0294C15.6626 11.8953 17.5427 11.2759 19.4687 11.2759C20.7171 11.2759 21.9444 11.5336 23.0765 12.0282C22.6085 11.2134 21.9989 10.4798 21.2776 9.86782C20.3958 9.55516 19.4725 9.3967 18.5316 9.3967C16.6857 9.3967 14.8905 10.0209 13.4494 11.1593ZM13.9959 14.037C13.9723 14.037 13.9483 14.0348 13.925 14.0306C13.8078 14.0098 13.706 13.9388 13.6466 13.8366C13.3941 13.4012 13.1816 12.9573 13.0148 12.5172C12.8447 12.0679 12.7082 11.5842 12.6096 11.0798C12.582 10.9373 12.6338 10.7911 12.7453 10.6978C14.3613 9.34254 16.4162 8.59637 18.5316 8.59637C19.5912 8.59637 20.6306 8.77938 21.6214 9.14033C21.6652 9.15607 21.7058 9.17954 21.7415 9.20942C22.893 10.1687 23.79 11.4087 24.336 12.7949C24.3994 12.9552 24.3521 13.1377 24.2191 13.2478C24.0858 13.358 23.8967 13.3714 23.7492 13.2812C22.4634 12.4929 20.9831 12.0762 19.4687 12.0762C17.5671 12.0762 15.715 12.7396 14.2533 13.9447C14.1805 14.0047 14.0894 14.037 13.9959 14.037Z" fill="#2E2E30"/>
<path fill-rule="evenodd" clip-rule="evenodd" d="M15.5989 24.1701C16.5413 24.2208 17.4932 24.1096 18.4026 23.8393C19.1449 23.2727 19.7794 22.5876 20.2888 21.8028C21.566 19.8353 21.9228 17.4405 21.2818 15.1945C20.659 15.1161 20.0707 15.111 19.4801 15.1676C19.885 17.3957 19.4334 19.6518 18.1903 21.5664C17.5141 22.6084 16.631 23.4933 15.5989 24.1701ZM16.044 24.9824C15.4481 24.9824 14.8528 24.9238 14.2674 24.8061C14.0976 24.772 13.9687 24.6338 13.9477 24.463C13.9262 24.292 14.0173 24.1269 14.1739 24.053C15.5379 23.4066 16.6926 22.3969 17.513 21.1329C18.7177 19.2769 19.1056 17.0683 18.6049 14.9136C18.5799 14.805 18.6014 14.6906 18.6645 14.5985C18.7276 14.5062 18.827 14.4443 18.9383 14.4278C19.8219 14.2965 20.7149 14.2931 21.6557 14.4387C21.807 14.4622 21.9316 14.5687 21.9778 14.7135C22.7884 17.2559 22.4195 19.9978 20.9664 22.2363C20.3925 23.1201 19.6744 23.8887 18.8319 24.5204C18.7948 24.5484 18.7526 24.5697 18.708 24.5833C17.8438 24.8488 16.9438 24.9824 16.044 24.9824Z" fill="#2E2E30"/>
</g>
<defs>
<clipPath id="clip0_1595_483">
<rect width="18" height="18" fill="white" transform="translate(7 7)"/>
</clipPath>
</defs>
</svg>
