<svg width="32" height="32" viewBox="0 0 32 32" fill="none" xmlns="http://www.w3.org/2000/svg">
<rect width="32" height="32" rx="16" fill="#333333" fill-opacity="0.2"/>
<path d="M14.4006 19.152V18.9858C14.4048 18.2145 14.4773 17.6009 14.6179 17.1449C14.7628 16.6889 14.9673 16.3224 15.2315 16.0455C15.4957 15.7642 15.8175 15.5064 16.1967 15.272C16.4567 15.1101 16.6889 14.9332 16.8935 14.7415C17.1023 14.5455 17.2663 14.3281 17.3857 14.0895C17.505 13.8466 17.5646 13.576 17.5646 13.2777C17.5646 12.9411 17.4858 12.6491 17.3281 12.402C17.1705 12.1548 16.9574 11.9631 16.6889 11.8267C16.4247 11.6903 16.1286 11.6222 15.8004 11.6222C15.4979 11.6222 15.2102 11.6882 14.9375 11.8203C14.669 11.9482 14.4453 12.1442 14.2663 12.4084C14.0916 12.6683 13.9936 12.9986 13.9723 13.3991H11.6967C11.718 12.5895 11.9141 11.9119 12.2848 11.3665C12.6598 10.821 13.1541 10.4119 13.7678 10.1392C14.3857 9.86648 15.0675 9.73011 15.8132 9.73011C16.6271 9.73011 17.343 9.87287 17.9609 10.1584C18.5831 10.4439 19.0668 10.8509 19.4119 11.3793C19.7614 11.9034 19.9361 12.5256 19.9361 13.2457C19.9361 13.7315 19.8572 14.1662 19.6996 14.5497C19.5462 14.9332 19.3267 15.2741 19.0412 15.5724C18.7557 15.8707 18.4169 16.1371 18.0249 16.3714C17.6797 16.5845 17.3963 16.8061 17.1747 17.0362C16.9574 17.2663 16.7955 17.5369 16.6889 17.848C16.5866 18.1548 16.5334 18.5341 16.5291 18.9858V19.152H14.4006ZM15.5128 23.1406C15.1293 23.1406 14.799 23.0043 14.522 22.7315C14.245 22.4588 14.1065 22.1264 14.1065 21.7344C14.1065 21.3509 14.245 21.0227 14.522 20.75C14.799 20.4773 15.1293 20.3409 15.5128 20.3409C15.892 20.3409 16.2202 20.4773 16.4972 20.75C16.7784 21.0227 16.919 21.3509 16.919 21.7344C16.919 21.9943 16.853 22.2308 16.7209 22.4439C16.593 22.657 16.4226 22.8274 16.2095 22.9553C16.0007 23.0788 15.7685 23.1406 15.5128 23.1406Z" fill="#333333"/>
</svg>
