<svg width="68" height="68" viewBox="0 0 68 68" fill="currentColor" xmlns="http://www.w3.org/2000/svg">
<path d="M42.1067 24.3164C42.6496 24.9421 43.597 25.0092 44.2227 24.4663C44.8484 23.9234 44.9155 22.976 44.3726 22.3503L42.1067 24.3164ZM25.8934 43.6836C25.3504 43.0579 24.4031 42.9908 23.7774 43.5337C23.1516 44.0766 23.0845 45.024 23.6275 45.6497L25.8934 43.6836ZM35.5 16.2222C35.5 15.3938 34.8284 14.7222 34 14.7222C33.1716 14.7222 32.5 15.3938 32.5 16.2222H35.5ZM32.5 51.7777C32.5 52.6062 33.1715 53.2778 34 53.2778C34.8284 53.2778 35.5 52.6062 35.5 51.7778L32.5 51.7777ZM64.5 34C64.5 50.8447 50.8447 64.5 34 64.5V67.5C52.5015 67.5 67.5 52.5015 67.5 34H64.5ZM34 64.5C17.1553 64.5 3.5 50.8447 3.5 34H0.5C0.5 52.5015 15.4985 67.5 34 67.5V64.5ZM3.5 34C3.5 17.1553 17.1553 3.5 34 3.5V0.5C15.4985 0.5 0.5 15.4985 0.5 34H3.5ZM34 3.5C50.8447 3.5 64.5 17.1553 64.5 34H67.5C67.5 15.4985 52.5015 0.5 34 0.5V3.5ZM34 32.5C31.3093 32.5 28.9412 31.7702 27.2896 30.6691C25.6275 29.5611 24.8333 28.195 24.8333 26.8889H21.8333C21.8333 29.5101 23.427 31.6996 25.6255 33.1653C27.8344 34.6379 30.7996 35.5 34 35.5V32.5ZM24.8333 26.8889C24.8333 25.5828 25.6275 24.2167 27.2896 23.1086C28.9412 22.0076 31.3093 21.2778 34 21.2778V18.2778C30.7996 18.2778 27.8344 19.1399 25.6255 20.6125C23.427 22.0781 21.8333 24.2676 21.8333 26.8889H24.8333ZM34 21.2778C37.6382 21.2778 40.62 22.603 42.1067 24.3164L44.3726 22.3503C42.1707 19.8126 38.2581 18.2778 34 18.2778V21.2778ZM34 35.5C36.6907 35.5 39.0588 36.2298 40.7105 37.3309C42.3726 38.439 43.1667 39.805 43.1667 41.1111H46.1667C46.1667 38.4898 44.573 36.3004 42.3746 34.8347C40.1656 33.3621 37.2004 32.5 34 32.5V35.5ZM32.5 16.2222V19.7778H35.5V16.2222H32.5ZM32.5001 48.2222L32.5 51.7777L35.5 51.7778L35.5001 48.2223L32.5001 48.2222ZM34.0001 46.7222C30.3619 46.7222 27.3801 45.397 25.8934 43.6836L23.6275 45.6497C25.8294 48.1873 29.742 49.7222 34.0001 49.7222L34.0001 46.7222ZM43.1667 41.1111C43.1667 42.4172 42.3726 43.7833 40.7105 44.8914C39.0589 45.9924 36.6908 46.7222 34.0001 46.7222V49.7222C37.2004 49.7222 40.1657 48.8601 42.3746 47.3875C44.5731 45.9219 46.1667 43.7324 46.1667 41.1111H43.1667ZM32.5 19.7778L32.5001 48.2222L35.5001 48.2222L35.5 19.7778L32.5 19.7778Z" fill="#F05454"/>
</svg>
