<svg xmlns="http://www.w3.org/2000/svg" width="68" height="68" fill="currentColor"><path fill="#F05454" d="M42.107 24.316a1.5 1.5 0 0 0 2.266-1.966l-2.266 1.966ZM25.893 43.684a1.5 1.5 0 0 0-2.265 1.966l2.265-1.966ZM35.5 16.222a1.5 1.5 0 0 0-3 0h3Zm-3 35.556a1.5 1.5 0 1 0 3 0h-3ZM64.5 34c0 16.845-13.655 30.5-30.5 30.5v3c18.502 0 33.5-14.998 33.5-33.5h-3ZM34 64.5C17.155 64.5 3.5 50.845 3.5 34h-3C.5 52.502 15.498 67.5 34 67.5v-3ZM3.5 34C3.5 17.155 17.155 3.5 34 3.5v-3C15.498.5.5 15.498.5 34h3ZM34 3.5c16.845 0 30.5 13.655 30.5 30.5h3C67.5 15.498 52.502.5 34 .5v3Zm0 29c-2.69 0-5.059-.73-6.71-1.83-1.662-1.109-2.457-2.475-2.457-3.781h-3c0 2.621 1.594 4.81 3.793 6.276C27.834 34.638 30.8 35.5 34 35.5v-3Zm-9.167-5.611c0-1.306.795-2.672 2.457-3.78 1.651-1.101 4.02-1.831 6.71-1.831v-3c-3.2 0-6.166.862-8.375 2.335-2.198 1.465-3.792 3.655-3.792 6.276h3ZM34 21.278c3.638 0 6.62 1.325 8.107 3.038l2.266-1.966C42.17 19.813 38.258 18.278 34 18.278v3ZM34 35.5c2.69 0 5.059.73 6.71 1.83 1.663 1.109 2.457 2.475 2.457 3.781h3c0-2.621-1.594-4.81-3.792-6.276C40.165 33.362 37.2 32.5 34 32.5v3Zm-1.5-19.278v3.556h3v-3.556h-3Zm0 32v3.556h3v-3.556h-3Zm1.5-1.5c-3.638 0-6.62-1.325-8.107-3.038l-2.265 1.966c2.201 2.537 6.114 4.072 10.372 4.072v-3Zm9.167-5.61c0 1.305-.794 2.671-2.456 3.78-1.652 1.1-4.02 1.83-6.71 1.83v3c3.2 0 6.165-.862 8.374-2.334 2.198-1.466 3.792-3.656 3.792-6.277h-3ZM32.5 19.777v28.444h3V19.778h-3Z"/></svg>
