<?xml version="1.0" encoding="iso-8859-1"?>
<!-- Uploaded to: SVG Repo, www.svgrepo.com, Generator: SVG Repo Mixer Tools -->
<svg fill="#000000" height="800px" width="800px" version="1.1" id="Layer_1" xmlns="http://www.w3.org/2000/svg" xmlns:xlink="http://www.w3.org/1999/xlink" 
	 viewBox="0 0 290.625 290.625" xml:space="preserve">
<g>
	<g>
		<path d="M257.297,85.683l-70.941-28.378l-0.023-0.056L150,43.627V23.438C150,10.514,139.486,0,126.563,0
			c-12.923,0-23.438,10.514-23.438,23.438v4.688h9.375v-4.688c0-7.753,6.309-14.063,14.063-14.063
			c7.754,0,14.063,6.309,14.063,14.063v20.189l-36.333,13.622l-0.023,0.056L33.328,85.683L13.252,201.122l57.061,4.753v84.75h150
			v-84.75l57.06-4.753L257.297,85.683z M190.443,90.642l-32.48,8.859l23.621-29.526L190.443,90.642z M145.312,51.881l29.798,11.175
			l-29.798,37.252l-29.798-37.252L145.312,51.881z M109.041,69.975l23.62,29.527l-32.48-8.859L109.041,69.975z M70.312,196.467
			l-46.064-3.839l1.664-9.572l44.4,4.036V196.467z M220.312,177.68v-46.43v-4.688h-9.375v4.688v75.408v74.592H79.688v-74.592V131.25
			v-4.688h-9.375v4.688v46.43l-42.788-3.891l14.147-81.347l57.375-22.95L87.319,96.853l53.306,14.541V262.5H150V111.394
			l53.306-14.536l-11.728-27.361l57.375,22.95l14.147,81.347L220.312,177.68z M220.313,187.092l44.4-4.036l1.664,9.572
			l-46.064,3.839V187.092z"/>
	</g>
</g>
</svg>