<svg width="32" height="32" viewBox="0 0 32 32" fill="none" xmlns="http://www.w3.org/2000/svg">
<path d="M19.5758 11.6554C19.9377 12.0725 20.5693 12.1173 20.9865 11.7553C21.4036 11.3933 21.4483 10.7618 21.0864 10.3446L19.5758 11.6554ZM12.4242 20.3446C12.0623 19.9275 11.4307 19.8827 11.0136 20.2447C10.5964 20.6067 10.5517 21.2382 10.9136 21.6554L12.4242 20.3446ZM17 7.66667C17 7.11438 16.5523 6.66667 16 6.66667C15.4477 6.66667 15 7.11438 15 7.66667H17ZM15 24.3333C15 24.8856 15.4477 25.3333 16 25.3333C16.5523 25.3333 17 24.8856 17 24.3334L15 24.3333ZM30 16C30 23.732 23.732 30 16 30V32C24.8366 32 32 24.8366 32 16H30ZM16 30C8.26801 30 2 23.732 2 16H0C0 24.8366 7.16344 32 16 32V30ZM2 16C2 8.26801 8.26801 2 16 2V0C7.16344 0 0 7.16344 0 16H2ZM16 2C23.732 2 30 8.26801 30 16H32C32 7.16344 24.8366 0 16 0V2ZM16 15C14.7892 15 13.7382 14.671 13.0192 14.1916C12.2931 13.7076 12 13.1488 12 12.6667H10C10 14.0255 10.8262 15.1333 11.9098 15.8557C13.0004 16.5828 14.4494 17 16 17V15ZM12 12.6667C12 12.1846 12.2931 11.6257 13.0192 11.1417C13.7382 10.6623 14.7892 10.3333 16 10.3333V8.33333C14.4494 8.33333 13.0004 8.75053 11.9098 9.47759C10.8262 10.2 10 11.3078 10 12.6667H12ZM16 10.3333C17.6441 10.3333 18.9497 10.9338 19.5758 11.6554L21.0864 10.3446C19.9835 9.07355 18.0574 8.33333 16 8.33333V10.3333ZM16 17C17.2108 17 18.2618 17.329 18.9809 17.8084C19.7069 18.2924 20 18.8512 20 19.3333H22C22 17.9745 21.1739 16.8667 20.0902 16.1443C18.9996 15.4172 17.5506 15 16 15V17ZM15 7.66667V9.33333H17V7.66667H15ZM15 22.6666L15 24.3333L17 24.3334L17 22.6667L15 22.6666ZM16 21.6667C14.356 21.6667 13.0504 21.0662 12.4242 20.3446L10.9136 21.6554C12.0166 22.9264 13.9427 23.6667 16 23.6667L16 21.6667ZM20 19.3333C20 19.8154 19.7069 20.3743 18.9809 20.8583C18.2618 21.3377 17.2109 21.6667 16 21.6667V23.6667C17.5506 23.6667 18.9997 23.2495 20.0903 22.5224C21.1739 21.8 22 20.6922 22 19.3333H20ZM15 9.33334L15 22.6667L17 22.6667L17 9.33333L15 9.33334Z" fill="#F05454"/>
</svg>
