<?xml version="1.0" encoding="utf-8"?>
<!-- Svg Vector Icons : http://www.onlinewebfonts.com/icon -->
<!DOCTYPE svg PUBLIC "-//W3C//DTD SVG 1.1//EN" "http://www.w3.org/Graphics/SVG/1.1/DTD/svg11.dtd">
<svg version="1.1" xmlns="http://www.w3.org/2000/svg" xmlns:xlink="http://www.w3.org/1999/xlink" x="0px" y="0px" viewBox="0 0 1000 1000" enable-background="new 0 0 1000 1000" xml:space="preserve">
<metadata> Svg Vector Icons : http://www.onlinewebfonts.com/icon </metadata>
<g><path d="M538.9,361.3c0.6-11.1-5.8-19.2-19.2-24.5c-0.6,0-1.5-0.3-2.6-0.9v49C531,382,538.3,374.1,538.9,361.3z"/><path d="M496.9,249.3c-14,3.5-21.6,10.8-22.7,21.9c-0.6,11.7,7,19.8,22.7,24.5V249.3z"/><path d="M502.6,491.6c97.4,0,176.3-78.9,176.3-176.3c0-97.3-78.9-176.3-176.3-176.3c-97.3,0-176.2,78.9-176.2,176.3C326.3,412.7,405.3,491.6,502.6,491.6z M479.4,324.5c-29.7-8.2-44.6-26.5-44.6-55.1c2.3-31.5,23-49,62.1-52.5V195H517v22.7c30.9,3.5,49.9,20.1,56.9,49.9l-35.9,9.6c-1.7-12.2-8.7-21-21-26.2v50.7c8.7,2.3,16.9,5.2,24.5,8.7c26.2,11.1,39.1,27.1,38.5,48.1c-1.2,35-22.2,54.2-63,57.7v22.7h-20.1v-23.6c-38.5-2.9-61-23.9-67.4-63l36.7-9.6c2.3,24.5,12.5,38.5,30.6,42v-55.1C490.4,326.8,484.6,325.1,479.4,324.5z"/><path d="M502.6,553.3c131.4,0,238-106.5,238-238c0-131.4-106.5-238-238-238c-131.4,0-238,106.6-238,238C264.6,446.8,371.2,553.3,502.6,553.3z M502.6,103.6c117,0,211.8,94.8,211.8,211.8c0,117-94.8,211.8-211.8,211.8c-117,0-211.8-94.8-211.8-211.8C290.8,198.4,385.6,103.6,502.6,103.6z"/><path d="M981.1,584.9c-14.8-19.3-48.3-35.4-116,4.6c6.2-28.1-16.1-45.5-42.5-45.5c-23.4,0-50.7,6-72.4,28.1c-31.2-41-63.3-36.2-125.7,2.6c-23.8,14.8-44.8,27.4-60.4,36.2c-4.2,2.3-7.5,4.1-10.8,5.9c6.2,1.3,12.3,2.4,19.2,2.4c87.6,0,156.8,0,156.8,76c0,58.4-67.9,75.2-103.7,75.9H463.2c-66.9,0-132.4-69.7-132.4-69.7s77.4,31.7,132.4,31.7h162c0.2,0,66.1-2.6,66.1-37.9c0-32.3-17.7-38-118.8-38c-65.9,0-132.6-38.9-132.6-38.9s-66.7-48.7-87.2-61.5c-48.5-30.3-87.2-59-171.9-25.7C127.1,552.2,10,606.7,10,606.7l108,239.8l55.1-35.8c30.5-19.4,47.4-22.7,86.8-2.5c38.1,19.6,155.3,80.5,184.6,94.8c90,43.7,128.7,4.6,172.2-20.5c37.1-21.4,300-195.5,327.6-215C987.4,637,1000.8,610.5,981.1,584.9z"/></g>
</svg>