<svg width="32" height="32" viewBox="0 0 32 32" fill="none" xmlns="http://www.w3.org/2000/svg">
<rect width="32" height="32" rx="16" fill="#0284C7" fill-opacity="0.2"/>
<path d="M16 18L25 13L16 8L7 13L16 18ZM16 18L22.1591 14.5783C22.7017 15.9466 23 17.4384 23 18.9999C23 19.7013 22.9398 20.3885 22.8244 21.0569C20.2143 21.3106 17.849 22.4006 16 24.0555C14.151 22.4006 11.7857 21.3106 9.17562 21.0569C9.06017 20.3885 9 19.7012 9 18.9999C9 17.4384 9.29824 15.9466 9.84088 14.5782L16 18ZM12 23.9999V16.5L16 14.2778" stroke="#0284C7" stroke-width="2" stroke-linecap="round" stroke-linejoin="round"/>
</svg>
